<svg xmlns="http://www.w3.org/2000/svg" width="1200" height="640" viewBox="0 0 1200 640" role="img" aria-labelledby="title desc">
  <title id="title">ReMe auto memory and auto resource flow</title>
  <desc id="desc">A concise flow where auto memory and auto resource both create daily cards, which are indexed in the daily memory layer and then used by dream and search.</desc>
  <defs>
    <style>
      .bg { fill: #f7f8fb; }
      .title { font: 700 28px -apple-system, BlinkMacSystemFont, "Segoe UI", sans-serif; fill: #172033; }
      .subtitle { font: 14px -apple-system, BlinkMacSystemFont, "Segoe UI", sans-serif; fill: #607086; }
      .step-num { font: 700 12px -apple-system, BlinkMacSystemFont, "Segoe UI", sans-serif; fill: #ffffff; }
      .step-title { font: 700 18px -apple-system, BlinkMacSystemFont, "Segoe UI", sans-serif; fill: #172033; }
      .step-subtitle { font: 13px -apple-system, BlinkMacSystemFont, "Segoe UI", sans-serif; fill: #607086; }
      .chip-title { font: 700 13px -apple-system, BlinkMacSystemFont, "Segoe UI", sans-serif; fill: #253246; }
      .chip-text { font: 12px -apple-system, BlinkMacSystemFont, "Segoe UI", sans-serif; fill: #627087; }
      .note { font: 12px -apple-system, BlinkMacSystemFont, "Segoe UI", sans-serif; fill: #5d6a7d; }
      .panel { fill: #ffffff; stroke: #d7dde7; stroke-width: 1.2; rx: 10; ry: 10; }
      .chip { fill: #f9fafc; stroke: #dfe5ee; stroke-width: 1; rx: 8; ry: 8; }
      .badge { fill: #44546a; }
      .arrow { stroke: #8794a8; stroke-width: 2; fill: none; marker-end: url(#arrow); }
      .soft-arrow { stroke: #a3adbd; stroke-width: 1.6; stroke-dasharray: 5 5; fill: none; marker-end: url(#arrow-soft); }
      .line { stroke: #e1e6ee; stroke-width: 1; }
    </style>
    <marker id="arrow" markerWidth="10" markerHeight="10" refX="8" refY="3" orient="auto" markerUnits="strokeWidth">
      <path d="M0,0 L0,6 L8,3 z" fill="#8794a8"/>
    </marker>
    <marker id="arrow-soft" markerWidth="10" markerHeight="10" refX="8" refY="3" orient="auto" markerUnits="strokeWidth">
      <path d="M0,0 L0,6 L8,3 z" fill="#a3adbd"/>
    </marker>
  </defs>

  <rect class="bg" x="0" y="0" width="1200" height="640"/>
  <text class="title" x="600" y="54" text-anchor="middle">Auto Memory &amp; Auto Resource</text>
  <text class="subtitle" x="600" y="80" text-anchor="middle">Two ingestion paths create daily cards, then share one daily index and downstream memory flow.</text>

  <rect class="panel" x="84" y="132" width="300" height="300"/>
  <circle class="badge" cx="118" cy="170" r="15"/>
  <text class="step-num" x="118" y="174" text-anchor="middle">1</text>
  <text class="step-title" x="146" y="176">Inputs</text>
  <text class="step-subtitle" x="112" y="206">memory + resource</text>
  <rect class="chip" x="112" y="234" width="244" height="54"/>
  <text class="chip-title" x="234" y="255" text-anchor="middle">Auto Memory</text>
  <text class="chip-text" x="234" y="273" text-anchor="middle">conversation -> session daily card</text>
  <rect class="chip" x="112" y="312" width="244" height="54"/>
  <text class="chip-title" x="234" y="333" text-anchor="middle">Auto Resource</text>
  <text class="chip-text" x="234" y="351" text-anchor="middle">dated file -> resource daily card</text>
  <rect class="chip" x="112" y="388" width="244" height="28"/>
  <text class="chip-text" x="234" y="407" text-anchor="middle">original sources remain verifiable</text>

  <rect class="panel" x="450" y="132" width="300" height="300"/>
  <circle class="badge" cx="484" cy="170" r="15"/>
  <text class="step-num" x="484" y="174" text-anchor="middle">2</text>
  <text class="step-title" x="512" y="176">Daily Memory Layer</text>
  <text class="step-subtitle" x="478" y="206">daily/&lt;date&gt;/</text>
  <rect class="chip" x="478" y="234" width="244" height="54"/>
  <text class="chip-title" x="600" y="255" text-anchor="middle">daily cards</text>
  <text class="chip-text" x="600" y="273" text-anchor="middle">facts, context, actions</text>
  <rect class="chip" x="478" y="312" width="244" height="54"/>
  <text class="chip-title" x="600" y="333" text-anchor="middle">day index</text>
  <text class="chip-text" x="600" y="351" text-anchor="middle">daily/&lt;date&gt;.md links cards</text>
  <rect class="chip" x="478" y="388" width="244" height="28"/>
  <text class="chip-text" x="600" y="407" text-anchor="middle">one readable daily memory stream</text>

  <rect class="panel" x="816" y="132" width="300" height="300"/>
  <circle class="badge" cx="850" cy="170" r="15"/>
  <text class="step-num" x="850" y="174" text-anchor="middle">3</text>
  <text class="step-title" x="878" y="176">Downstream</text>
  <text class="step-subtitle" x="844" y="206">dream + search</text>
  <rect class="chip" x="844" y="234" width="244" height="54"/>
  <text class="chip-title" x="966" y="255" text-anchor="middle">Auto Dream</text>
  <text class="chip-text" x="966" y="273" text-anchor="middle">daily material -> digest memory</text>
  <rect class="chip" x="844" y="312" width="244" height="54"/>
  <text class="chip-title" x="966" y="333" text-anchor="middle">Memory Search</text>
  <text class="chip-text" x="966" y="351" text-anchor="middle">retrieve daily and digest nodes</text>
  <rect class="chip" x="844" y="388" width="244" height="28"/>
  <text class="chip-text" x="966" y="407" text-anchor="middle">daily is the shared ingestion layer</text>

  <path class="arrow" d="M384 282 H450"/>
  <path class="arrow" d="M750 282 H816"/>

  <rect class="panel" x="126" y="502" width="948" height="82"/>
  <text class="note" x="176" y="532">Conversation source</text>
  <text class="chip-text" x="176" y="554">session/dialog/&lt;session_id&gt;.jsonl</text>
  <line class="line" x1="454" y1="518" x2="454" y2="566"/>
  <text class="chip-title" x="498" y="532">Resource source</text>
  <text class="chip-text" x="498" y="554">resource/&lt;date&gt;/&lt;resource_file&gt;</text>
  <line class="line" x1="796" y1="518" x2="796" y2="566"/>
  <text class="chip-title" x="838" y="532">Daily output</text>
  <text class="chip-text" x="838" y="554">daily cards plus daily/&lt;date&gt;.md</text>

  <path class="soft-arrow" d="M966 432 C966 474 600 474 600 432"/>
  <text class="note" x="782" y="478" text-anchor="middle">downstream flows read the same daily memory layer</text>
</svg>
