<svg xmlns="http://www.w3.org/2000/svg" width="1200" height="640" viewBox="0 0 1200 640" role="img" aria-labelledby="title desc">
  <title id="title">ReMe overview</title>
  <desc id="desc">A hand-drawn style overview of ReMe, showing Auto Memory plus Auto Resource, Auto Dream plus Proactive, Auto Index plus Memory Search, and Memory as File.</desc>
  <defs>
    <style>
      .bg { fill: #fffdf8; }
      .ink { stroke: #1f2430; stroke-width: 2.2; stroke-linecap: round; stroke-linejoin: round; }
      .thin { stroke-width: 1.6; }
      .dash { stroke-dasharray: 8 7; }
      .title { font: 700 30px "Comic Sans MS", "Bradley Hand", -apple-system, BlinkMacSystemFont, "Segoe UI", sans-serif; fill: #1f2430; }
      .subtitle { font: 14px "Comic Sans MS", "Bradley Hand", -apple-system, BlinkMacSystemFont, "Segoe UI", sans-serif; fill: #556276; }
      .head { font: 700 17px "Comic Sans MS", "Bradley Hand", -apple-system, BlinkMacSystemFont, "Segoe UI", sans-serif; fill: #1f2430; }
      .label { font: 700 13px "Comic Sans MS", "Bradley Hand", -apple-system, BlinkMacSystemFont, "Segoe UI", sans-serif; fill: #1f2430; }
      .text { font: 12px "Comic Sans MS", "Bradley Hand", -apple-system, BlinkMacSystemFont, "Segoe UI", sans-serif; fill: #4f5c6f; }
      .tiny { font: 11px "Comic Sans MS", "Bradley Hand", -apple-system, BlinkMacSystemFont, "Segoe UI", sans-serif; fill: #5e6a7c; }
      .box { fill: #ffffff; }
      .blue { fill: #eef7ff; }
      .green { fill: #f0fbf5; }
      .yellow { fill: #fff7e5; }
      .pink { fill: #fff2f6; }
      .violet { fill: #f4f1ff; }
      .mint { fill: #eefafa; }
      .peach { fill: #fff2ea; }
      .paper { fill: #f8fbff; }
      .tab { fill: #ffffff; }
      .step { stroke-dasharray: 6 5; }
      .arrow { fill: none; stroke: #7f8b9d; stroke-width: 1.45; stroke-linecap: round; stroke-linejoin: round; marker-end: url(#arrow); }
      .soft-arrow { fill: none; stroke: #a3adbd; stroke-width: 1.25; stroke-dasharray: 6 6; stroke-linecap: round; stroke-linejoin: round; marker-end: url(#arrow-soft); }
    </style>
    <marker id="arrow" markerWidth="6" markerHeight="6" refX="5" refY="2" orient="auto" markerUnits="strokeWidth">
      <path d="M0,0 L0,4 L5,2 z" fill="#7f8b9d"/>
    </marker>
    <marker id="arrow-soft" markerWidth="6" markerHeight="6" refX="5" refY="2" orient="auto" markerUnits="strokeWidth">
      <path d="M0,0 L0,4 L5,2 z" fill="#a3adbd"/>
    </marker>
  </defs>

  <rect class="bg" x="0" y="0" width="1200" height="640"/>
  <text class="title" x="600" y="44" text-anchor="middle">ReMe</text>
  <text class="subtitle" x="600" y="68" text-anchor="middle">A file-native memory loop: capture, consolidate, link, search, and proactively surface what matters.</text>

  <!-- Top workflow -->
  <g transform="translate(40 120)">
    <rect class="blue ink thin" x="0" y="0" width="300" height="260" rx="18"/>
    <text class="head" x="150" y="31" text-anchor="middle">Auto Memory + Auto Resource</text>
    <text class="text" x="150" y="56" text-anchor="middle">Capture sessions and resources into daily cards.</text>

    <g transform="translate(24 78)">
      <rect class="blue ink thin dash" x="0" y="0" width="252" height="64" rx="13"/>
      <text class="label" x="54" y="27" text-anchor="middle">Auto</text>
      <text class="label" x="54" y="45" text-anchor="middle">Memory</text>

      <rect class="box ink thin step" x="100" y="12" width="62" height="40" rx="9"/>
      <text class="label" x="131" y="29" text-anchor="middle">Capture</text>
      <text class="tiny" x="131" y="44" text-anchor="middle">chat</text>

      <rect class="yellow ink thin step" x="178" y="12" width="56" height="40" rx="9"/>
      <text class="label" x="206" y="29" text-anchor="middle">Write</text>
      <text class="tiny" x="206" y="44" text-anchor="middle">daily</text>

      <path class="arrow" d="M164 32 H176"/>
    </g>

    <g transform="translate(24 162)">
      <rect class="green ink thin dash" x="0" y="0" width="252" height="64" rx="13"/>
      <text class="label" x="54" y="27" text-anchor="middle">Auto</text>
      <text class="label" x="54" y="45" text-anchor="middle">Resource</text>

      <rect class="box ink thin step" x="100" y="12" width="62" height="40" rx="9"/>
      <text class="label" x="131" y="29" text-anchor="middle">Read</text>
      <text class="tiny" x="131" y="44" text-anchor="middle">source</text>

      <rect class="yellow ink thin step" x="178" y="12" width="56" height="40" rx="9"/>
      <text class="label" x="206" y="29" text-anchor="middle">Write</text>
      <text class="tiny" x="206" y="44" text-anchor="middle">daily</text>

      <path class="arrow" d="M164 32 H176"/>
    </g>
  </g>

  <g transform="translate(380 120)">
    <rect class="yellow ink thin" x="0" y="0" width="320" height="260" rx="18"/>
    <text class="head" x="160" y="32" text-anchor="middle">Auto Dream + Proactive</text>
    <text class="text" x="160" y="58" text-anchor="middle">Consolidate notes, link knowledge, surface interests.</text>

    <rect class="box ink thin step" x="38" y="84" width="112" height="56" rx="12"/>
    <text class="label" x="94" y="108" text-anchor="middle">Extract</text>
    <text class="tiny" x="94" y="126" text-anchor="middle">changed files</text>

    <rect class="peach ink thin step" x="170" y="84" width="112" height="56" rx="12"/>
    <text class="label" x="226" y="108" text-anchor="middle">Auto Link</text>
    <text class="tiny" x="226" y="126" text-anchor="middle">dedupe + edges</text>

    <rect class="pink ink thin step" x="38" y="168" width="112" height="56" rx="12"/>
    <text class="label" x="94" y="192" text-anchor="middle">Integrate</text>
    <text class="tiny" x="94" y="210" text-anchor="middle">write digest</text>

    <rect class="mint ink thin step" x="170" y="168" width="112" height="56" rx="12"/>
    <text class="label" x="226" y="192" text-anchor="middle">Proactive</text>
    <text class="tiny" x="226" y="210" text-anchor="middle">interests.yaml</text>

    <path class="arrow" d="M152 112 H168"/>
    <path class="arrow" d="M226 142 V166"/>
    <path class="arrow" d="M168 196 H152"/>
    <path class="arrow" d="M94 166 V142"/>
  </g>

  <g transform="translate(730 120)">
    <rect class="violet ink thin" x="0" y="0" width="430" height="260" rx="18"/>
    <text class="head" x="215" y="31" text-anchor="middle">Auto Index + Memory Search</text>
    <text class="text" x="215" y="56" text-anchor="middle">Keep indexes fresh, recall chunks, then follow links.</text>

    <g transform="translate(24 86)">
      <rect class="blue ink thin dash" x="0" y="0" width="178" height="136" rx="14"/>
      <text class="label" x="89" y="24" text-anchor="middle">Auto Index</text>

      <rect class="box ink thin step" x="18" y="46" width="64" height="58" rx="10"/>
      <text class="label" x="50" y="70" text-anchor="middle">Watch</text>
      <text class="tiny" x="50" y="88" text-anchor="middle">changes</text>

      <rect class="yellow ink thin step" x="98" y="46" width="64" height="58" rx="10"/>
      <text class="label" x="130" y="70" text-anchor="middle">Build</text>
      <text class="tiny" x="130" y="88" text-anchor="middle">index</text>

      <path class="arrow" d="M84 75 H96"/>
    </g>

    <g transform="translate(228 86)">
      <rect class="green ink thin dash" x="0" y="0" width="178" height="136" rx="14"/>
      <text class="label" x="89" y="24" text-anchor="middle">Memory Search</text>

      <rect class="box ink thin step" x="18" y="46" width="64" height="58" rx="10"/>
      <text class="label" x="50" y="70" text-anchor="middle">Recall</text>
      <text class="tiny" x="50" y="88" text-anchor="middle">BM25 + vec</text>

      <rect class="mint ink thin step" x="98" y="46" width="64" height="58" rx="10"/>
      <text class="label" x="130" y="70" text-anchor="middle">Expand</text>
      <text class="tiny" x="130" y="88" text-anchor="middle">links</text>

      <path class="arrow" d="M84 75 H96"/>
    </g>

    <path class="arrow" d="M204 161 H226"/>
  </g>

  <path class="arrow" d="M340 272 H380"/>

  <!-- Bottom foundation -->
  <rect class="box ink" x="40" y="408" width="1120" height="202" rx="24"/>
  <text class="head" x="600" y="442" text-anchor="middle">Memory as File</text>
  <text class="text" x="600" y="466" text-anchor="middle">Every memory is readable, editable, indexable, linkable, and auditable as files.</text>

  <g transform="translate(94 500)">
    <rect class="paper ink thin" x="10" y="6" width="62" height="52"/>
    <rect class="paper ink thin" x="5" y="3" width="62" height="52"/>
    <rect class="paper ink thin" x="0" y="0" width="62" height="52"/>
    <rect class="tab ink thin" x="-12" y="14" width="44" height="22"/>
    <text class="label" x="10" y="30" text-anchor="middle">.json</text>
    <line class="ink thin" x1="26" y1="28" x2="50" y2="28"/>
    <line class="ink thin" x1="22" y1="42" x2="52" y2="42"/>
    <text class="label" x="106" y="19">session/</text>
    <text class="tiny" x="106" y="39">raw session logs</text>
  </g>

  <g transform="translate(344 500)">
    <rect class="paper ink thin" x="10" y="6" width="62" height="52"/>
    <rect class="paper ink thin" x="5" y="3" width="62" height="52"/>
    <rect class="paper ink thin" x="0" y="0" width="62" height="52"/>
    <rect class="tab ink thin" x="-8" y="14" width="34" height="22"/>
    <text class="label" x="9" y="30" text-anchor="middle">.md</text>
    <line class="ink thin" x1="26" y1="28" x2="50" y2="28"/>
    <line class="ink thin" x1="22" y1="42" x2="52" y2="42"/>
    <text class="label" x="106" y="19">resource/</text>
    <text class="tiny" x="106" y="39">raw material with source</text>
  </g>

  <g transform="translate(604 500)">
    <rect class="paper ink thin" x="10" y="6" width="62" height="52"/>
    <rect class="paper ink thin" x="5" y="3" width="62" height="52"/>
    <rect class="paper ink thin" x="0" y="0" width="62" height="52"/>
    <rect class="tab ink thin" x="-8" y="14" width="34" height="22"/>
    <text class="label" x="9" y="30" text-anchor="middle">.md</text>
    <line class="ink thin" x1="26" y1="28" x2="50" y2="28"/>
    <line class="ink thin" x1="22" y1="42" x2="52" y2="42"/>
    <text class="label" x="106" y="19">daily/</text>
    <text class="tiny" x="106" y="39">working memory cards</text>
  </g>

  <g transform="translate(850 500)">
    <rect class="paper ink thin" x="10" y="6" width="62" height="52"/>
    <rect class="paper ink thin" x="5" y="3" width="62" height="52"/>
    <rect class="paper ink thin" x="0" y="0" width="62" height="52"/>
    <rect class="tab ink thin" x="-8" y="14" width="34" height="22"/>
    <text class="label" x="9" y="30" text-anchor="middle">.md</text>
    <line class="ink thin" x1="26" y1="28" x2="50" y2="28"/>
    <line class="ink thin" x1="22" y1="42" x2="52" y2="42"/>
    <text class="label" x="106" y="19">digest/</text>
    <text class="tiny" x="106" y="39">long-term knowledge nodes</text>
  </g>

  <path class="soft-arrow" d="M190 380 V408"/>
  <path class="soft-arrow" d="M540 380 V408"/>
  <path class="soft-arrow" d="M945 380 V408"/>
</svg>
