<?xml version="1.0" encoding="utf-8"?>
<!-- Generator: Adobe Illustrator 25.4.1, SVG Export Plug-In . SVG Version: 6.00 Build 0)  -->
<svg version="1.1" id="Layer_1" xmlns="http://www.w3.org/2000/svg" xmlns:xlink="http://www.w3.org/1999/xlink" x="0px" y="0px"
	 viewBox="0 0 1572 273" style="enable-background:new 0 0 1572 273;" xml:space="preserve">
<style type="text/css">
	.st0{fill:url(#SVGID_1_);}
	.st1{fill:none;stroke:#FFFFFF;stroke-width:3;stroke-miterlimit:10;}
	.st2{fill:#FFFFFF;}
	.st3{opacity:0.1;clip-path:url(#SVGID_00000129914111459972265670000000360129721314932366_);}
	.st4{opacity:0.0163;}
	.st5{opacity:0.3419;}
	.st6{opacity:0.3053;}
	.st7{opacity:0.4947;}
	.st8{opacity:0.1716;}
	.st9{opacity:0.2827;}
	.st10{opacity:0.4396;}
	.st11{opacity:0.2191;}
	.st12{opacity:0.3687;}
	.st13{opacity:0.3264;}
	.st14{opacity:0.2876;}
	.st15{opacity:0.2448;}
	.st16{opacity:0.0105;}
	.st17{opacity:0.3395;}
	.st18{opacity:0.1932;}
	.st19{opacity:0.2467;}
	.st20{opacity:0.2535;}
	.st21{opacity:0.2581;}
	.st22{opacity:0.4273;}
	.st23{opacity:0.149;}
	.st24{opacity:0.2501;}
	.st25{opacity:0.0713;}
	.st26{opacity:0.1763;}
	.st27{opacity:0.2282;}
	.st28{opacity:0.2712;}
	.st29{opacity:0.384;}
	.st30{opacity:0.4021;}
	.st31{opacity:0.2087;}
	.st32{opacity:0.42;}
	.st33{opacity:0.3495;}
	.st34{opacity:0.2778;}
	.st35{opacity:0.2694;}
	.st36{opacity:0.2895;}
	.st37{opacity:0.3209;}
	.st38{opacity:0.2074;}
	.st39{opacity:0.4718;}
	.st40{opacity:0.477;}
	.st41{opacity:0.359;}
	.st42{opacity:0.3551;}
	.st43{opacity:0.2133;}
	.st44{opacity:0.1705;}
	.st45{opacity:0.3991;}
	.st46{opacity:0.4943;}
	.st47{opacity:0.2426;}
	.st48{opacity:0.5;}
	.st49{opacity:0.6;}
	.st50{opacity:0.4;}
	.st51{opacity:0.3;}
	.st52{opacity:0.0838;}
	.st53{opacity:0.3084;}
	.st54{opacity:0.5;fill:#7C0FEF;}
</style>
<linearGradient id="SVGID_1_" gradientUnits="userSpaceOnUse" x1="0" y1="136.5" x2="1572" y2="136.5">
	<stop  offset="0" style="stop-color:#009296"/>
	<stop  offset="0.838" style="stop-color:#0079CE"/>
	<stop  offset="1" style="stop-color:#0074D9"/>
</linearGradient>
<rect y="-0.63" class="st0" width="1572" height="274.27"/>
<line class="st1" x1="834.29" y1="190.07" x2="834.29" y2="82.93"/>
<g>
	<path class="st2" d="M916.92,119.5l13.15-36.13h2.26l13.15,36.13h-2.26l-12.8-35.18h1.5l-12.75,35.18H916.92z M921.94,110.12v-2.01
		h18.47v2.01H921.94z"/>
	<path class="st2" d="M960.28,120.25c-2.56,0-4.71-0.63-6.46-1.89c-1.75-1.26-3.07-2.98-3.98-5.14c-0.9-2.17-1.35-4.6-1.35-7.31
		c0-2.66,0.44-5.07,1.33-7.23c0.89-2.16,2.18-3.87,3.88-5.13c1.7-1.26,3.76-1.89,6.19-1.89c2.53,0,4.65,0.61,6.39,1.84
		c1.73,1.23,3.04,2.92,3.93,5.07c0.89,2.15,1.33,4.6,1.33,7.34c0,2.69-0.44,5.12-1.32,7.29c-0.88,2.17-2.15,3.89-3.83,5.16
		S962.67,120.25,960.28,120.25z M960.33,132.3c-1.3,0-2.62-0.18-3.94-0.55c-1.32-0.37-2.56-0.99-3.73-1.87
		c-1.16-0.88-2.15-2.08-2.97-3.6l1.86-1.25c0.9,1.86,2.17,3.17,3.81,3.95c1.64,0.78,3.29,1.17,4.97,1.17c2.43,0,4.32-0.46,5.68-1.37
		c1.36-0.91,2.32-2.27,2.87-4.06c0.55-1.8,0.83-4.04,0.83-6.71v-6.93h0.2V92.4h1.96V118c0,0.82-0.02,1.61-0.05,2.38
		c-0.03,0.77-0.1,1.53-0.2,2.28c-0.27,2.19-0.85,4-1.74,5.42c-0.9,1.42-2.13,2.48-3.7,3.17C964.6,131.95,962.66,132.3,960.33,132.3z
		 M960.28,118.15c2.12,0,3.9-0.54,5.33-1.61c1.43-1.07,2.5-2.53,3.22-4.38c0.72-1.85,1.08-3.94,1.08-6.26
		c0-2.36-0.36-4.45-1.09-6.29c-0.73-1.83-1.81-3.27-3.24-4.3c-1.43-1.04-3.2-1.56-5.31-1.56c-2.16,0-3.94,0.53-5.36,1.59
		c-1.41,1.06-2.46,2.51-3.15,4.34c-0.69,1.83-1.03,3.9-1.03,6.21c0,2.33,0.36,4.41,1.08,6.26c0.72,1.85,1.79,3.31,3.2,4.38
		C956.44,117.61,958.19,118.15,960.28,118.15z"/>
	<path class="st2" d="M989.79,120.25c-2.56,0-4.76-0.58-6.61-1.73c-1.85-1.15-3.27-2.8-4.28-4.94s-1.51-4.68-1.51-7.63
		c0-2.96,0.5-5.51,1.49-7.65s2.42-3.78,4.27-4.93c1.85-1.15,4.06-1.72,6.64-1.72c2.59,0,4.81,0.59,6.65,1.76
		c1.84,1.17,3.25,2.87,4.23,5.09c0.98,2.23,1.47,4.91,1.47,8.05h-2.26v-0.7c-0.1-3.9-1.02-6.89-2.75-8.97
		c-1.73-2.08-4.18-3.12-7.34-3.12c-3.21,0-5.7,1.07-7.48,3.2s-2.66,5.13-2.66,9s0.89,6.86,2.66,9s4.27,3.2,7.48,3.2
		c2.24,0,4.21-0.53,5.9-1.58c1.69-1.05,3.04-2.57,4.04-4.54l1.76,1c-1.1,2.31-2.67,4.09-4.69,5.34
		C994.76,119.63,992.43,120.25,989.79,120.25z M978.75,106.55v-2.11h22.08v2.11H978.75z"/>
	<path class="st2" d="M1006.9,119.5V92.4h1.96v5.52h0.15v21.58H1006.9z M1027.02,119.5v-14.35c0-1.94-0.2-3.62-0.59-5.03
		c-0.39-1.41-0.97-2.58-1.74-3.51c-0.77-0.93-1.7-1.62-2.8-2.07s-2.35-0.68-3.75-0.68c-1.66,0-3.07,0.29-4.23,0.87
		c-1.16,0.58-2.1,1.37-2.82,2.37c-0.72,1-1.25,2.16-1.58,3.46c-0.33,1.3-0.5,2.68-0.5,4.14l-1.96,0.05c0-3.09,0.51-5.59,1.53-7.49
		c1.02-1.9,2.37-3.28,4.05-4.15c1.68-0.87,3.52-1.3,5.51-1.3c1.37,0,2.63,0.19,3.78,0.58c1.15,0.38,2.17,0.94,3.06,1.67
		c0.89,0.73,1.65,1.62,2.27,2.67c0.62,1.05,1.09,2.25,1.41,3.6c0.32,1.35,0.48,2.82,0.48,4.43v14.75H1027.02z"/>
	<path class="st2" d="M1032.64,94.51V92.4h17.01v2.11H1032.64z M1049.66,119.5c-1.36,0.3-2.69,0.41-4.01,0.34s-2.5-0.39-3.54-0.95
		c-1.04-0.56-1.82-1.41-2.33-2.55c-0.4-0.89-0.63-1.79-0.68-2.7c-0.05-0.91-0.08-1.95-0.08-3.12V84.88h2.11v25.64
		c0,1.17,0.01,2.12,0.04,2.84c0.02,0.72,0.2,1.4,0.51,2.03c0.6,1.2,1.56,1.94,2.86,2.22c1.3,0.28,3.01,0.24,5.12-0.11V119.5z"/>
	<path class="st2" d="M1064.71,119.5V83.37h2.01l15.36,33.57l15.21-33.57h2.11v36.08h-2.11V88.44l-14.05,31.06h-2.36l-14.05-31.06
		v31.06H1064.71z"/>
	<path class="st2" d="M1117.3,120.25c-2.56,0-4.76-0.58-6.61-1.73s-3.27-2.8-4.28-4.94c-1-2.14-1.5-4.68-1.5-7.63
		c0-2.96,0.5-5.51,1.49-7.65c0.99-2.14,2.42-3.78,4.26-4.93c1.85-1.15,4.06-1.72,6.64-1.72c2.59,0,4.81,0.59,6.65,1.76
		c1.84,1.17,3.25,2.87,4.23,5.09c0.98,2.23,1.47,4.91,1.47,8.05h-2.26v-0.7c-0.1-3.9-1.02-6.89-2.75-8.97
		c-1.73-2.08-4.18-3.12-7.34-3.12c-3.21,0-5.7,1.07-7.48,3.2c-1.77,2.13-2.66,5.13-2.66,9s0.89,6.86,2.66,9
		c1.77,2.13,4.27,3.2,7.48,3.2c2.24,0,4.21-0.53,5.9-1.58c1.69-1.05,3.04-2.57,4.04-4.54l1.76,1c-1.1,2.31-2.67,4.09-4.69,5.34
		C1122.28,119.63,1119.94,120.25,1117.3,120.25z M1106.26,106.55v-2.11h22.08v2.11H1106.26z"/>
	<path class="st2" d="M1134.41,119.5V92.4h1.96v5.52h0.15v21.58H1134.41z M1150.52,119.5l0.05-18.32c0-2.34-0.65-4.2-1.94-5.57
		c-1.3-1.37-2.97-2.06-5.03-2.06c-2.11,0-3.81,0.72-5.12,2.16c-1.3,1.44-1.96,3.36-1.96,5.77l-1.86-0.8c0-1.74,0.39-3.29,1.18-4.65
		c0.79-1.36,1.87-2.43,3.25-3.21s2.96-1.17,4.75-1.17c1.52,0,2.95,0.32,4.29,0.97c1.34,0.64,2.42,1.64,3.25,3
		c0.83,1.35,1.24,3.1,1.24,5.22l-0.05,18.67H1150.52z M1166.58,119.5l0.05-18.67c0-2.26-0.66-4.04-1.98-5.33
		c-1.32-1.3-2.95-1.94-4.89-1.94c-1.07,0-2.15,0.24-3.25,0.73c-1.1,0.49-2.02,1.3-2.76,2.46s-1.12,2.73-1.12,4.74h-1.86
		c-0.08-1.99,0.26-3.72,1.04-5.19c0.78-1.47,1.87-2.61,3.27-3.42s3.01-1.22,4.82-1.22c2.56,0,4.67,0.8,6.34,2.41
		c1.66,1.61,2.5,3.81,2.5,6.62l-0.05,18.82H1166.58z"/>
	<path class="st2" d="M1186.15,120.25c-2.68,0-4.93-0.61-6.77-1.83c-1.84-1.22-3.24-2.91-4.19-5.07c-0.95-2.16-1.43-4.64-1.43-7.45
		c0-2.84,0.48-5.34,1.46-7.48c0.97-2.14,2.38-3.81,4.23-4.99c1.85-1.19,4.09-1.78,6.71-1.78c2.69,0,4.96,0.61,6.8,1.82
		s3.23,2.89,4.18,5.03c0.95,2.14,1.42,4.61,1.42,7.4c0,2.86-0.48,5.37-1.43,7.52c-0.95,2.15-2.35,3.83-4.2,5.03
		C1191.07,119.65,1188.81,120.25,1186.15,120.25z M1186.15,118.15c3.41,0,5.96-1.13,7.63-3.4c1.67-2.27,2.51-5.21,2.51-8.84
		c0-3.7-0.84-6.65-2.52-8.84c-1.68-2.2-4.22-3.3-7.62-3.3c-2.29,0-4.19,0.52-5.68,1.56s-2.61,2.47-3.35,4.29
		c-0.74,1.82-1.1,3.92-1.1,6.3c0,3.68,0.86,6.64,2.57,8.88C1180.3,117.03,1182.82,118.15,1186.15,118.15z"/>
	<path class="st2" d="M1204.07,119.5V92.4h1.96v6.47l-0.65-0.85c0.28-0.74,0.64-1.42,1.08-2.06c0.43-0.64,0.86-1.15,1.28-1.56
		c0.74-0.72,1.61-1.27,2.62-1.64s2.03-0.59,3.05-0.65c1.02-0.06,1.92,0.04,2.71,0.29v2.01c-1.12-0.25-2.31-0.3-3.56-0.14
		c-1.25,0.16-2.43,0.74-3.51,1.74c-0.95,0.89-1.63,1.91-2.02,3.06c-0.39,1.15-0.63,2.35-0.71,3.58c-0.08,1.23-0.13,2.4-0.13,3.5
		v13.35H1204.07z"/>
	<path class="st2" d="M1224.94,131.54l5.27-14.15l0.05,4.22l-11.89-29.21h2.31l10.64,26.3h-1.61l9.54-26.3h2.26l-14.2,39.14H1224.94
		z"/>
	<path class="st2" d="M1266.54,119.5V85.48h-13.25v-2.11h28.6v2.11h-13.25v34.02H1266.54z"/>
	<path class="st2" d="M1285.91,119.5V83.37h1.96v21.33h0.15v14.8H1285.91z M1306.04,119.5v-14.35c0-1.94-0.2-3.62-0.59-5.03
		c-0.39-1.41-0.97-2.58-1.74-3.51c-0.77-0.93-1.7-1.62-2.8-2.07s-2.35-0.68-3.75-0.68c-1.66,0-3.07,0.29-4.23,0.87
		c-1.16,0.58-2.1,1.37-2.82,2.37c-0.72,1-1.25,2.16-1.58,3.46c-0.33,1.3-0.5,2.68-0.5,4.14l-1.96,0.05c0-3.09,0.51-5.59,1.53-7.49
		c1.02-1.9,2.37-3.28,4.05-4.15c1.68-0.87,3.52-1.3,5.51-1.3c1.37,0,2.63,0.19,3.78,0.58c1.15,0.38,2.17,0.94,3.06,1.67
		c0.89,0.73,1.65,1.62,2.27,2.67c0.62,1.05,1.09,2.25,1.41,3.6c0.32,1.35,0.48,2.82,0.48,4.43v14.75H1306.04z"/>
	<path class="st2" d="M1322.55,120.25c-2.11,0-3.86-0.37-5.24-1.1c-1.39-0.74-2.43-1.71-3.11-2.91c-0.69-1.2-1.03-2.51-1.03-3.91
		c0-1.59,0.35-2.91,1.04-3.95c0.69-1.05,1.6-1.87,2.72-2.47s2.33-1.04,3.61-1.3c1.57-0.32,3.26-0.6,5.06-0.84
		c1.8-0.24,3.46-0.45,4.98-0.61c1.52-0.17,2.66-0.3,3.41-0.4l-0.75,0.5c0.08-3.19-0.5-5.57-1.74-7.14
		c-1.25-1.56-3.44-2.35-6.59-2.35c-2.28,0-4.1,0.51-5.48,1.52s-2.35,2.56-2.9,4.65l-2.31-0.6c0.6-2.51,1.84-4.42,3.7-5.72
		c1.87-1.3,4.23-1.96,7.09-1.96c2.51,0,4.6,0.51,6.27,1.53c1.67,1.02,2.81,2.4,3.41,4.14c0.23,0.67,0.4,1.48,0.5,2.43
		c0.1,0.95,0.15,1.88,0.15,2.79v16.96h-1.96v-7.43l1,0.05c-0.72,2.58-2.15,4.58-4.29,6
		C1327.96,119.54,1325.44,120.25,1322.55,120.25z M1322.45,118.15c1.96,0,3.68-0.35,5.18-1.05c1.5-0.7,2.71-1.72,3.64-3.05
		c0.93-1.33,1.52-2.92,1.77-4.78c0.13-0.94,0.2-1.94,0.2-3.01s0-1.84,0-2.31l1.1,0.85c-0.89,0.08-2.11,0.2-3.68,0.34
		c-1.56,0.14-3.22,0.33-4.96,0.55c-1.74,0.23-3.31,0.51-4.72,0.87c-0.82,0.2-1.67,0.52-2.53,0.95c-0.87,0.44-1.6,1.05-2.2,1.83
		c-0.59,0.79-0.89,1.8-0.89,3.04c0,0.87,0.22,1.75,0.65,2.63c0.44,0.89,1.17,1.63,2.2,2.23
		C1319.25,117.84,1320.66,118.15,1322.45,118.15z"/>
	<path class="st2" d="M1338.86,94.51V92.4h17.01v2.11H1338.86z M1355.87,119.5c-1.35,0.3-2.69,0.41-4.01,0.34s-2.5-0.39-3.54-0.95
		c-1.04-0.56-1.82-1.41-2.33-2.55c-0.4-0.89-0.63-1.79-0.68-2.7c-0.05-0.91-0.08-1.95-0.08-3.12V84.88h2.11v25.64
		c0,1.17,0.01,2.12,0.04,2.84c0.03,0.72,0.2,1.4,0.51,2.03c0.6,1.2,1.56,1.94,2.86,2.22c1.3,0.28,3.01,0.24,5.12-0.11V119.5z"/>
	<path class="st2" d="M1378.75,119.5l-10.34-36.13h2.16l9.28,32.32l9.23-32.32h2.21l9.28,32.32l9.23-32.32h2.21l-10.34,36.13h-2.21
		l-9.28-32.27l-9.23,32.27H1378.75z"/>
	<path class="st2" d="M1424.42,120.25c-2.68,0-4.93-0.61-6.77-1.83c-1.84-1.22-3.24-2.91-4.19-5.07c-0.95-2.16-1.43-4.64-1.43-7.45
		c0-2.84,0.49-5.34,1.46-7.48c0.97-2.14,2.38-3.81,4.23-4.99c1.85-1.19,4.08-1.78,6.71-1.78c2.69,0,4.96,0.61,6.8,1.82
		c1.84,1.21,3.23,2.89,4.18,5.03c0.94,2.14,1.42,4.61,1.42,7.4c0,2.86-0.48,5.37-1.43,7.52s-2.35,3.83-4.2,5.03
		C1429.33,119.65,1427.08,120.25,1424.42,120.25z M1424.42,118.15c3.41,0,5.96-1.13,7.63-3.4c1.67-2.27,2.51-5.21,2.51-8.84
		c0-3.7-0.84-6.65-2.52-8.84c-1.68-2.2-4.22-3.3-7.62-3.3c-2.29,0-4.19,0.52-5.68,1.56s-2.61,2.47-3.35,4.29s-1.1,3.92-1.1,6.3
		c0,3.68,0.86,6.64,2.57,8.88C1418.57,117.03,1421.09,118.15,1424.42,118.15z"/>
	<path class="st2" d="M1442.33,119.5V92.4h1.96v6.47l-0.65-0.85c0.28-0.74,0.64-1.42,1.08-2.06s0.86-1.15,1.28-1.56
		c0.74-0.72,1.61-1.27,2.62-1.64c1.01-0.38,2.03-0.59,3.05-0.65s1.92,0.04,2.71,0.29v2.01c-1.12-0.25-2.31-0.3-3.56-0.14
		c-1.25,0.16-2.43,0.74-3.51,1.74c-0.95,0.89-1.63,1.91-2.02,3.06c-0.39,1.15-0.63,2.35-0.71,3.58s-0.12,2.4-0.12,3.5v13.35H1442.33
		z"/>
	<path class="st2" d="M1459.14,119.5V83.37h2.11v22.08l13.55-13.05h3.16l-14.15,13.55l16.31,13.55h-3.61l-15.25-13.05v13.05H1459.14
		z"/>
	<path class="st2" d="M1492.01,120.2c-3.06,0-5.6-0.64-7.63-1.92c-2.02-1.28-3.28-3.05-3.76-5.31l2.16-0.4
		c0.45,1.67,1.51,3.01,3.17,4.01c1.66,1,3.7,1.51,6.11,1.51c2.46,0,4.41-0.53,5.86-1.58c1.45-1.05,2.17-2.48,2.17-4.29
		c0-0.99-0.22-1.79-0.65-2.42c-0.44-0.63-1.28-1.2-2.55-1.72s-3.12-1.11-5.58-1.78c-2.58-0.7-4.58-1.38-6.01-2.04
		c-1.43-0.66-2.43-1.4-3.01-2.23s-0.87-1.84-0.87-3.05c0-1.44,0.43-2.71,1.28-3.81c0.85-1.1,2.03-1.97,3.54-2.58
		s3.25-0.93,5.22-0.93c1.99,0,3.79,0.33,5.38,0.99c1.6,0.66,2.88,1.58,3.86,2.76c0.98,1.18,1.54,2.54,1.69,4.08l-2.16,0.4
		c-0.32-1.89-1.28-3.38-2.9-4.48s-3.62-1.64-6.03-1.64c-2.26-0.03-4.1,0.43-5.53,1.38c-1.43,0.95-2.15,2.2-2.15,3.74
		c0,0.85,0.24,1.58,0.73,2.2c0.49,0.61,1.33,1.17,2.53,1.67c1.2,0.5,2.88,1.02,5.02,1.56c2.71,0.69,4.82,1.38,6.33,2.08
		c1.51,0.7,2.58,1.52,3.19,2.46c0.61,0.94,0.92,2.1,0.92,3.49c0,2.46-0.92,4.39-2.76,5.78S1495.22,120.2,1492.01,120.2z"/>
	<path class="st2" d="M995.68,179.72v-36.13h2.11v34.02h17.97v2.11H995.68z"/>
	<path class="st2" d="M1020.52,146.8v-3.21h2.11v3.21H1020.52z M1020.52,179.72v-27.1h2.11v27.1H1020.52z"/>
	<path class="st2" d="M1030.16,179.72v-36.13h2.11v22.08l13.55-13.05h3.16l-14.15,13.55l16.31,13.55h-3.61l-15.25-13.05v13.05
		H1030.16z"/>
	<path class="st2" d="M1064.03,180.47c-2.56,0-4.76-0.58-6.61-1.73s-3.27-2.8-4.28-4.94c-1-2.14-1.5-4.68-1.5-7.63
		c0-2.96,0.5-5.51,1.49-7.65c0.99-2.14,2.42-3.78,4.26-4.93c1.85-1.15,4.06-1.72,6.64-1.72c2.59,0,4.81,0.59,6.65,1.76
		s3.25,2.87,4.23,5.09c0.98,2.23,1.47,4.91,1.47,8.05h-2.26v-0.7c-0.1-3.9-1.02-6.89-2.75-8.97c-1.73-2.08-4.18-3.12-7.34-3.12
		c-3.21,0-5.7,1.07-7.48,3.2c-1.77,2.13-2.66,5.13-2.66,9c0,3.86,0.89,6.86,2.66,9c1.77,2.13,4.27,3.2,7.48,3.2
		c2.24,0,4.21-0.53,5.9-1.58s3.04-2.57,4.04-4.54l1.76,1c-1.1,2.31-2.67,4.09-4.69,5.34
		C1069.01,179.85,1066.68,180.47,1064.03,180.47z M1052.99,166.77v-2.11h22.08v2.11H1052.99z"/>
	<path class="st2" d="M1091.93,179.72v-36.13h2.11v17.01h21.88v-17.01h2.11v36.13h-2.11v-17.01h-21.88v17.01H1091.93z"/>
	<path class="st2" d="M1135.54,180.32c-1.37,0-2.63-0.19-3.78-0.58s-2.17-0.94-3.06-1.67c-0.9-0.73-1.65-1.62-2.27-2.67
		c-0.62-1.05-1.09-2.25-1.4-3.6c-0.32-1.35-0.48-2.82-0.48-4.43v-14.75h2.11v14.35c0,1.92,0.2,3.6,0.59,5.02
		c0.39,1.42,0.97,2.6,1.74,3.53c0.77,0.93,1.7,1.62,2.8,2.07c1.1,0.45,2.35,0.68,3.75,0.68c1.66,0,3.07-0.29,4.23-0.87
		c1.16-0.58,2.1-1.37,2.82-2.37c0.72-1,1.25-2.16,1.58-3.46c0.33-1.3,0.5-2.69,0.5-4.14l1.96-0.05c0,3.09-0.51,5.59-1.53,7.49
		c-1.02,1.9-2.37,3.28-4.05,4.15C1139.37,179.89,1137.53,180.32,1135.54,180.32z M1144.83,179.72v-5.52h-0.15v-21.58h2.11v27.1
		H1144.83z"/>
	<path class="st2" d="M1153.81,179.72v-27.1h1.96v5.52h0.15v21.58H1153.81z M1169.92,179.72l0.05-18.32c0-2.34-0.65-4.2-1.95-5.57
		c-1.3-1.37-2.97-2.06-5.03-2.06c-2.11,0-3.81,0.72-5.12,2.16c-1.3,1.44-1.96,3.36-1.96,5.77l-1.86-0.8c0-1.74,0.39-3.29,1.18-4.65
		s1.87-2.43,3.25-3.21c1.38-0.78,2.96-1.17,4.75-1.17c1.52,0,2.95,0.32,4.29,0.97c1.34,0.64,2.42,1.64,3.25,3
		c0.83,1.35,1.24,3.09,1.24,5.22l-0.05,18.67H1169.92z M1185.98,179.72l0.05-18.67c0-2.26-0.66-4.04-1.98-5.33
		c-1.32-1.3-2.95-1.94-4.89-1.94c-1.07,0-2.15,0.24-3.25,0.73s-2.02,1.3-2.76,2.46c-0.75,1.15-1.12,2.74-1.12,4.74h-1.86
		c-0.08-1.99,0.26-3.72,1.04-5.19c0.78-1.47,1.87-2.61,3.27-3.42c1.41-0.81,3.01-1.22,4.82-1.22c2.56,0,4.67,0.8,6.33,2.41
		c1.66,1.61,2.5,3.81,2.5,6.62l-0.05,18.82H1185.98z"/>
	<path class="st2" d="M1202.54,180.47c-2.11,0-3.86-0.37-5.24-1.1c-1.39-0.74-2.43-1.71-3.11-2.91c-0.69-1.2-1.03-2.51-1.03-3.91
		c0-1.59,0.35-2.91,1.04-3.95c0.69-1.04,1.6-1.87,2.72-2.47s2.33-1.04,3.61-1.3c1.57-0.32,3.26-0.6,5.06-0.84
		c1.8-0.24,3.46-0.45,4.98-0.61c1.52-0.17,2.66-0.3,3.41-0.4l-0.75,0.5c0.08-3.2-0.5-5.57-1.74-7.14s-3.44-2.35-6.59-2.35
		c-2.28,0-4.1,0.51-5.48,1.52s-2.35,2.56-2.9,4.65l-2.31-0.6c0.6-2.51,1.84-4.42,3.7-5.72s4.23-1.96,7.09-1.96
		c2.51,0,4.6,0.51,6.27,1.53c1.67,1.02,2.81,2.4,3.41,4.14c0.23,0.67,0.4,1.48,0.5,2.43c0.1,0.95,0.15,1.88,0.15,2.79v16.96h-1.96
		v-7.43l1,0.05c-0.72,2.58-2.15,4.58-4.29,6C1207.95,179.76,1205.43,180.47,1202.54,180.47z M1202.44,178.37
		c1.96,0,3.68-0.35,5.18-1.05c1.5-0.7,2.71-1.72,3.64-3.05c0.93-1.33,1.52-2.92,1.77-4.78c0.13-0.94,0.2-1.94,0.2-3.01
		s0-1.84,0-2.31l1.1,0.85c-0.89,0.08-2.11,0.2-3.68,0.34c-1.56,0.14-3.22,0.33-4.96,0.55c-1.74,0.23-3.31,0.51-4.72,0.87
		c-0.82,0.2-1.67,0.52-2.53,0.95c-0.87,0.44-1.6,1.05-2.2,1.83s-0.89,1.8-0.89,3.04c0,0.87,0.22,1.75,0.65,2.63
		c0.44,0.89,1.17,1.63,2.2,2.23C1199.24,178.06,1200.65,178.37,1202.44,178.37z"/>
	<path class="st2" d="M1221.86,179.72v-27.1h1.96v5.52h0.15v21.58H1221.86z M1241.98,179.72v-14.35c0-1.94-0.2-3.62-0.59-5.03
		c-0.39-1.41-0.97-2.58-1.74-3.51c-0.77-0.93-1.7-1.62-2.8-2.07c-1.1-0.45-2.35-0.68-3.75-0.68c-1.66,0-3.07,0.29-4.23,0.87
		c-1.16,0.58-2.1,1.37-2.82,2.37c-0.72,1-1.25,2.16-1.58,3.46c-0.33,1.3-0.5,2.69-0.5,4.14l-1.96,0.05c0-3.09,0.51-5.59,1.53-7.49
		c1.02-1.9,2.37-3.28,4.05-4.15c1.68-0.87,3.52-1.3,5.51-1.3c1.37,0,2.63,0.19,3.78,0.58c1.15,0.38,2.17,0.94,3.06,1.67
		c0.89,0.73,1.65,1.62,2.27,2.67c0.62,1.05,1.09,2.25,1.41,3.6c0.32,1.35,0.48,2.82,0.48,4.43v14.75H1241.98z"/>
	<path class="st2" d="M1260.65,179.72v-36.13h2.01l15.36,33.57l15.21-33.57h2.11v36.08h-2.11v-31.01l-14.05,31.06h-2.36
		l-14.05-31.06v31.06H1260.65z"/>
	<path class="st2" d="M1313.24,180.47c-2.56,0-4.76-0.58-6.61-1.73c-1.85-1.15-3.27-2.8-4.28-4.94c-1-2.14-1.51-4.68-1.51-7.63
		c0-2.96,0.5-5.51,1.49-7.65c1-2.14,2.42-3.78,4.27-4.93c1.85-1.15,4.06-1.72,6.64-1.72c2.59,0,4.81,0.59,6.65,1.76
		c1.84,1.17,3.25,2.87,4.23,5.09c0.98,2.23,1.47,4.91,1.47,8.05h-2.26v-0.7c-0.1-3.9-1.02-6.89-2.75-8.97
		c-1.73-2.08-4.18-3.12-7.34-3.12c-3.21,0-5.7,1.07-7.48,3.2s-2.66,5.13-2.66,9c0,3.86,0.89,6.86,2.66,9s4.27,3.2,7.48,3.2
		c2.24,0,4.21-0.53,5.9-1.58s3.04-2.57,4.04-4.54l1.76,1c-1.1,2.31-2.67,4.09-4.69,5.34
		C1318.21,179.85,1315.88,180.47,1313.24,180.47z M1302.2,166.77v-2.11h22.08v2.11H1302.2z"/>
	<path class="st2" d="M1330.35,179.72v-27.1h1.96v5.52h0.15v21.58H1330.35z M1346.46,179.72l0.05-18.32c0-2.34-0.65-4.2-1.94-5.57
		c-1.3-1.37-2.97-2.06-5.03-2.06c-2.11,0-3.81,0.72-5.12,2.16c-1.3,1.44-1.96,3.36-1.96,5.77l-1.86-0.8c0-1.74,0.39-3.29,1.18-4.65
		s1.87-2.43,3.25-3.21c1.38-0.78,2.96-1.17,4.75-1.17c1.52,0,2.95,0.32,4.29,0.97c1.34,0.64,2.42,1.64,3.25,3
		c0.83,1.35,1.24,3.09,1.24,5.22l-0.05,18.67H1346.46z M1362.52,179.72l0.05-18.67c0-2.26-0.66-4.04-1.98-5.33
		c-1.32-1.3-2.95-1.94-4.89-1.94c-1.07,0-2.15,0.24-3.25,0.73c-1.1,0.49-2.02,1.3-2.76,2.46s-1.12,2.74-1.12,4.74h-1.86
		c-0.08-1.99,0.26-3.72,1.04-5.19c0.78-1.47,1.87-2.61,3.27-3.42c1.41-0.81,3.01-1.22,4.82-1.22c2.56,0,4.67,0.8,6.34,2.41
		c1.66,1.61,2.5,3.81,2.5,6.62l-0.05,18.82H1362.52z"/>
	<path class="st2" d="M1382.09,180.47c-2.68,0-4.93-0.61-6.77-1.83s-3.24-2.91-4.19-5.07c-0.95-2.16-1.43-4.64-1.43-7.45
		c0-2.84,0.48-5.34,1.46-7.48c0.97-2.14,2.38-3.8,4.23-4.99c1.85-1.19,4.09-1.78,6.71-1.78c2.69,0,4.96,0.61,6.8,1.82
		s3.23,2.89,4.18,5.03c0.95,2.14,1.42,4.61,1.42,7.4c0,2.86-0.48,5.37-1.43,7.51c-0.95,2.15-2.35,3.83-4.2,5.03
		C1387,179.87,1384.75,180.47,1382.09,180.47z M1382.09,178.37c3.41,0,5.96-1.13,7.63-3.4s2.51-5.21,2.51-8.84
		c0-3.7-0.84-6.64-2.52-8.84c-1.68-2.2-4.22-3.3-7.62-3.3c-2.29,0-4.19,0.52-5.68,1.56c-1.5,1.04-2.61,2.47-3.35,4.29
		c-0.74,1.82-1.1,3.92-1.1,6.3c0,3.68,0.86,6.64,2.57,8.88C1376.24,177.25,1378.76,178.37,1382.09,178.37z"/>
	<path class="st2" d="M1400,179.72v-27.1h1.96v6.47l-0.65-0.85c0.28-0.74,0.64-1.42,1.08-2.06c0.43-0.63,0.86-1.15,1.28-1.56
		c0.74-0.72,1.61-1.27,2.62-1.64c1.01-0.38,2.03-0.59,3.05-0.65c1.02-0.06,1.92,0.04,2.71,0.29v2.01c-1.12-0.25-2.31-0.3-3.56-0.14
		c-1.25,0.16-2.43,0.74-3.51,1.74c-0.95,0.89-1.63,1.91-2.02,3.06c-0.39,1.15-0.63,2.35-0.71,3.58c-0.08,1.23-0.13,2.4-0.13,3.5
		v13.35H1400z"/>
	<path class="st2" d="M1420.88,191.76l5.27-14.15l0.05,4.21l-11.89-29.21h2.31l10.64,26.3h-1.61l9.54-26.3h2.26l-14.2,39.14H1420.88
		z"/>
</g>
<g>
	<g>
		<path class="st2" d="M283.59,142.33c0.82-1.5,3.64-2.46,5.65-2.69c9.56-1.09,15.67-9.18,14.1-19.11
			c-1.47-9.32-10.16-14.89-19.51-12.51c-8.51,2.18-12.43,8.07-12.08,18.17c0.24,6.71-4.3,14.03-10.37,15.67
			c-2.06,0.55-5.57,0.21-6.7-1.15c-3.56-4.27-6.29-9.22-9.44-14.06c7.79-7.12,13.73-15.34,16.46-25.47
			c0.92-3.42,2.06-5.36,5.97-6.43c8.68-2.37,13.02-12.08,10.05-20.68c-2.75-7.95-12.56-12.68-20.56-9.9
			c-8.49,2.94-13.12,11.83-9.53,20.25c2.04,4.77,1.98,9.27-0.42,12.91c-3.91,5.94-8.99,11.13-13.67,16.55
			c-1.9,2.22-3.91,2.1-6.71,0.89c-14.49-6.28-29.48-7.49-44.02-0.96c-5.69,2.55-9.09,1.21-12.8-2.32c-2.23-2.13-4.63-4.26-6.27-6.82
			c-4.04-6.27-7.51-12.31-4.17-20.72s-2.32-17.63-10.54-19.97c-8.32-2.37-17.64,2.66-20.03,10.81c-2.61,8.84,2.06,17.34,11.26,19.85
			c2.92,0.79,3.96,2.22,4.58,5.04c1.94,8.74,6.24,16.25,12.77,22.45c1.53,1.47,2.92,3.09,4.32,4.58c-2.91,4.34-6.09,8.01-8.03,12.24
			c-2.45,5.36-5.92,4.66-9.69,2.55c-6.78-3.83-9.86-9.57-9.31-17.65c0.61-9.23-6.21-16.17-15.25-16.44
			c-8.8-0.26-16.23,6.72-16.47,15.49c-0.25,8.95,6.31,16.16,15.46,16.28c3.21,0.03,4.35,1.38,5.57,3.85
			c3.71,7.54,9.51,12.78,17.65,15.3c1.98,0.61,3.91,1.43,6.79,2.51c-3.46,5.27-6.39,10.04-9.63,14.6c-2.33,3.29-5.42,3.99-9.54,2.88
			c-9.28-2.48-17.6,2.39-20.06,11.18c-2.2,7.94,2.49,16.76,10.26,19.26c8.83,2.83,16.84-1.33,20.49-10.61
			c0.58-1.47,1.21-3.1,2.32-4.15c4.19-3.96,8.58-7.7,12.86-11.5c24.89,36.49,73.84,32.67,96.09-0.54c3.15,3.01,6.53,5.78,9.35,9.05
			c2.75,3.19,5.07,6.78,7.3,10.38c4.53,7.31,13.1,10.18,20.9,6.77c7.1-3.1,10.91-11.7,8.52-19.25c-2.39-7.59-11.2-13.45-18.99-11.05
			c-6.36,1.96-9.73-0.57-12.79-4.99c-2.67-3.85-4.95-7.97-7.56-12.23c1.52-0.55,2.34-0.91,3.21-1.13
			C271.3,157.02,278.65,151.38,283.59,142.33z M287.62,114.55c5.21-0.02,8.86,3.3,8.96,8.17c0.12,5.18-3.12,8.84-8,9.07
			c-5.25,0.24-9.1-3.28-9.22-8.42C279.26,118.6,283.03,114.56,287.62,114.55z M262.44,70.74c4.96-0.13,8.97,3.49,9.1,8.19
			c0.13,4.96-3.84,9.34-8.59,9.49c-4.65,0.14-9.03-4.18-9.15-9.04C253.7,74.62,257.44,70.86,262.44,70.74z M144.09,87.8
			c-4.8-0.05-8.7-3.91-8.72-8.62c-0.03-4.69,3.92-8.52,8.8-8.55c5.05-0.01,8.69,3.62,8.56,8.56
			C152.58,84.26,148.97,87.86,144.09,87.8z M118.94,131.61c-5.23,0.11-8.86-3.21-8.92-8.16c-0.05-4.79,4.22-9.11,9.02-9.1
			c4.42,0.01,8.25,3.91,8.3,8.42C127.38,127.68,123.75,131.51,118.94,131.61z M124.96,202.12c-5.13,0.23-8.73-3.11-8.85-8.21
			c-0.12-5.08,3.38-8.76,8.32-8.75c4.56,0.02,8.32,3.71,8.42,8.26C132.95,198.19,129.58,201.91,124.96,202.12z M237.19,162.84
			c-8.1,11.67-19.86,16.43-32.82,17.11c-14.48-0.66-25.81-5.71-34.32-16.72c-2.43-3.13-2.41-5.44,0.05-8.52
			c17.66-22.19,51.63-21.27,67.44,2.11C238.46,158.18,238.2,161.38,237.19,162.84z M282.26,185.08c4.85-0.03,8.73,3.77,8.73,8.58
			c0,4.88-3.87,8.71-8.72,8.6c-4.85-0.11-8.49-3.98-8.39-8.91C273.97,188.65,277.54,185.12,282.26,185.08z"/>
		<path class="st2" d="M212.76,171.11c-5.31,4.28-13.32,4.22-18.65-0.13c-5.67-4.63-7.02-12.7-3.21-19.18
			c3.69-6.26,10.56-9,17.81-6.53c-4.14,3.5-5.56,7.18-1.64,10.95c3.48,3.36,6.6,1.42,9.27-1.62
			C219.24,160.01,217.62,167.2,212.76,171.11z"/>
		<path class="st2" d="M263.24,75.51c-2.8-0.18-4.86,2.16-4.65,4.26c0.2,1.96,2.41,3.76,4.98,3.34c1.76-0.36,3.06-1.81,3.19-3.45
			C266.92,77.7,265.41,75.81,263.24,75.51z M264.53,78.18c-0.38,0-0.69-0.32-0.69-0.7c0-0.38,0.31-0.7,0.69-0.7
			c0.39,0,0.7,0.32,0.7,0.7C265.23,77.87,264.93,78.18,264.53,78.18z"/>
		<path class="st2" d="M116.96,119.24c-1.65,0.7-2.64,2.4-2.43,4.12c0.19,1.6,1.37,2.94,2.97,3.37c3.12,0.07,5.33-1.99,5.37-3.69
			C122.9,121.22,120.43,118.84,116.96,119.24z M117.99,121.1c-0.38,0-0.7-0.31-0.7-0.69c0-0.38,0.32-0.7,0.7-0.7
			c0.38,0,0.7,0.32,0.7,0.7C118.69,120.79,118.37,121.1,117.99,121.1z"/>
		<path class="st2" d="M289.45,119.63c-3.11-0.38-5.39,1.83-5.36,3.6c0.02,1.71,2.2,3.75,5.15,3.5c1.48-0.48,2.52-1.82,2.61-3.35
			C291.95,121.76,290.98,120.24,289.45,119.63z M290.73,123.54c-0.38,0-0.7-0.31-0.7-0.7c0-0.38,0.32-0.69,0.7-0.69
			c0.38,0,0.7,0.31,0.7,0.69C291.43,123.23,291.11,123.54,290.73,123.54z"/>
		<path class="st2" d="M142.88,75.67c-1.78,0.24-3.13,1.67-3.23,3.3c-0.12,1.89,1.46,3.69,3.57,3.8c3.11,0.21,5.3-2.01,5.24-3.73
			C148.4,77.3,146.02,75.19,142.88,75.67z M141.54,78.28c-0.38,0-0.69-0.31-0.69-0.7c0-0.38,0.31-0.69,0.69-0.69
			c0.39,0,0.7,0.31,0.7,0.69C142.24,77.98,141.94,78.28,141.54,78.28z"/>
		<path class="st2" d="M283,190.25c-2.23-0.35-4.1,1.32-4.17,3.06c-0.07,1.77,1.77,3.6,4.07,3.33c1.7-0.04,3.07-1.42,3.12-3.11
			C286.08,191.83,284.73,190.36,283,190.25z M284.58,193.08c-0.39,0-0.7-0.31-0.7-0.69c0-0.39,0.31-0.7,0.7-0.7
			c0.38,0,0.69,0.31,0.69,0.7C285.27,192.77,284.96,193.08,284.58,193.08z"/>
		<path class="st2" d="M122.37,190.01c-1.72,0.68-2.72,2.42-2.46,4.14c0.23,1.51,1.4,2.75,2.94,3.11c2.55,0.09,4.46-1.72,4.55-3.44
			C127.5,191.9,125.31,189.65,122.37,190.01z M123.63,191.91c-0.38,0-0.69-0.31-0.69-0.7c0-0.38,0.31-0.69,0.69-0.69
			c0.39,0,0.7,0.31,0.7,0.69C124.33,191.6,124.03,191.91,123.63,191.91z"/>
	</g>
	<g>
		<path class="st2" d="M383.47,127.79v49.7h-9.97v-21.15h-21.29v21.15h-9.97v-49.7h9.97v20.44h21.29v-20.44H383.47z"/>
		<path class="st2" d="M393.97,131.68c-1.16-1.11-1.74-2.5-1.74-4.17c0-1.66,0.58-3.05,1.74-4.17c1.16-1.11,2.62-1.67,4.38-1.67
			c1.76,0,3.22,0.56,4.38,1.67c1.16,1.12,1.74,2.5,1.74,4.17c0,1.66-0.58,3.05-1.74,4.17c-1.16,1.12-2.62,1.67-4.38,1.67
			C396.59,133.35,395.13,132.79,393.97,131.68z"/>
		<path class="st2" d="M547.84,131.68c-1.16-1.11-1.74-2.5-1.74-4.17c0-1.66,0.58-3.05,1.74-4.17c1.16-1.11,2.62-1.67,4.38-1.67
			c1.76,0,3.22,0.56,4.38,1.67c1.16,1.12,1.74,2.5,1.74,4.17c0,1.66-0.58,3.05-1.74,4.17c-1.16,1.12-2.62,1.67-4.38,1.67
			C550.46,133.35,549,132.79,547.84,131.68z"/>
		<rect x="393.3" y="138.05" class="st2" width="9.97" height="39.45"/>
		<path class="st2" d="M446.34,141.93c2.89,2.97,4.34,7.11,4.34,12.42v23.14h-9.97v-21.79c0-3.13-0.78-5.54-2.35-7.23
			c-1.57-1.68-3.7-2.53-6.41-2.53c-2.75,0-4.93,0.84-6.52,2.53c-1.59,1.69-2.39,4.09-2.39,7.23v21.79h-9.97v-39.45h9.97v4.91
			c1.33-1.71,3.03-3.05,5.09-4.02c2.06-0.97,4.33-1.46,6.8-1.46C439.65,137.48,443.45,138.96,446.34,141.93z"/>
		<path class="st2" d="M459.98,147.02c1.59-3.09,3.76-5.46,6.51-7.12c2.75-1.66,5.81-2.49,9.19-2.49c2.56,0,5.01,0.56,7.33,1.67
			c2.33,1.12,4.18,2.6,5.55,4.45V124.8h10.11v52.69h-10.11v-5.84c-1.23,1.95-2.97,3.51-5.2,4.7c-2.23,1.19-4.82,1.78-7.76,1.78
			c-3.32,0-6.36-0.85-9.11-2.56c-2.75-1.71-4.93-4.12-6.51-7.23c-1.59-3.11-2.39-6.68-2.39-10.72
			C457.59,153.64,458.39,150.11,459.98,147.02z M487.21,151.54c-0.95-1.73-2.23-3.06-3.84-3.99c-1.61-0.93-3.35-1.39-5.2-1.39
			c-1.85,0-3.56,0.45-5.13,1.35c-1.57,0.9-2.84,2.22-3.81,3.95c-0.97,1.73-1.46,3.79-1.46,6.16c0,2.37,0.49,4.45,1.46,6.23
			c0.97,1.78,2.25,3.15,3.84,4.09c1.59,0.95,3.29,1.42,5.09,1.42c1.85,0,3.58-0.46,5.2-1.39c1.61-0.93,2.89-2.25,3.84-3.99
			c0.95-1.73,1.42-3.81,1.42-6.23C488.64,155.35,488.16,153.27,487.21,151.54z"/>
		<path class="st2" d="M514.84,176.39c-2.56-1.16-4.59-2.74-6.09-4.73c-1.5-1.99-2.31-4.2-2.46-6.62h10.04
			c0.19,1.52,0.94,2.78,2.24,3.77c1.31,1,2.93,1.5,4.88,1.5c1.9,0,3.38-0.38,4.45-1.14c1.07-0.76,1.6-1.73,1.6-2.92
			c0-1.28-0.65-2.24-1.96-2.88c-1.31-0.64-3.38-1.34-6.23-2.1c-2.94-0.71-5.35-1.45-7.23-2.21c-1.88-0.76-3.49-1.92-4.84-3.49
			c-1.35-1.57-2.03-3.68-2.03-6.34c0-2.18,0.63-4.18,1.89-5.98c1.26-1.8,3.06-3.23,5.41-4.27c2.35-1.04,5.11-1.57,8.3-1.57
			c4.7,0,8.45,1.17,11.25,3.52c2.8,2.35,4.34,5.52,4.63,9.51h-9.54c-0.14-1.57-0.8-2.81-1.96-3.74c-1.16-0.93-2.72-1.39-4.66-1.39
			c-1.8,0-3.19,0.33-4.17,1c-0.97,0.66-1.46,1.59-1.46,2.78c0,1.33,0.66,2.34,1.99,3.03c1.33,0.69,3.39,1.39,6.19,2.1
			c2.85,0.71,5.2,1.45,7.05,2.21c1.85,0.76,3.45,1.93,4.81,3.52c1.35,1.59,2.05,3.69,2.1,6.3c0,2.28-0.63,4.32-1.89,6.12
			c-1.26,1.8-3.06,3.22-5.41,4.24c-2.35,1.02-5.09,1.53-8.22,1.53C520.3,178.13,517.4,177.55,514.84,176.39z"/>
		<rect x="547.23" y="138.05" class="st2" width="9.97" height="39.45"/>
		<path class="st2" d="M590.24,139.15c2.23,1.16,3.99,2.67,5.27,4.52v-5.62h10.04v39.73c0,3.65-0.74,6.92-2.21,9.79
			c-1.47,2.87-3.68,5.15-6.62,6.84c-2.94,1.68-6.5,2.53-10.68,2.53c-5.6,0-10.19-1.31-13.78-3.92c-3.58-2.61-5.61-6.17-6.09-10.68
			h9.9c0.52,1.8,1.65,3.24,3.38,4.31c1.73,1.07,3.83,1.6,6.3,1.6c2.89,0,5.24-0.87,7.05-2.6c1.8-1.73,2.71-4.36,2.71-7.87v-6.12
			c-1.28,1.85-3.05,3.39-5.3,4.63c-2.26,1.23-4.83,1.85-7.73,1.85c-3.32,0-6.36-0.85-9.11-2.56c-2.75-1.71-4.93-4.12-6.52-7.23
			c-1.59-3.11-2.39-6.68-2.39-10.72c0-3.99,0.79-7.52,2.39-10.61c1.59-3.09,3.75-5.46,6.48-7.12c2.73-1.66,5.78-2.49,9.15-2.49
			C585.42,137.41,588.01,137.99,590.24,139.15z M594.09,151.54c-0.95-1.73-2.23-3.06-3.85-3.99c-1.61-0.93-3.35-1.39-5.2-1.39
			c-1.85,0-3.56,0.45-5.13,1.35c-1.57,0.9-2.84,2.22-3.81,3.95c-0.97,1.73-1.46,3.79-1.46,6.16c0,2.37,0.49,4.45,1.46,6.23
			c0.97,1.78,2.25,3.15,3.85,4.09c1.59,0.95,3.29,1.42,5.09,1.42c1.85,0,3.58-0.46,5.2-1.39c1.61-0.93,2.89-2.25,3.85-3.99
			c0.95-1.73,1.42-3.81,1.42-6.23C595.51,155.35,595.03,153.27,594.09,151.54z"/>
		<path class="st2" d="M645.49,139.44c2.33,1.31,4.14,3.23,5.45,5.77c1.31,2.54,1.96,5.59,1.96,9.15v23.14h-9.97v-21.79
			c0-3.13-0.78-5.54-2.35-7.23c-1.57-1.68-3.7-2.53-6.41-2.53c-2.75,0-4.93,0.84-6.52,2.53c-1.59,1.69-2.39,4.09-2.39,7.23v21.79
			h-9.97V124.8h9.97v18.16c1.28-1.71,2.99-3.05,5.13-4.02c2.14-0.97,4.51-1.46,7.12-1.46C640.51,137.48,643.17,138.13,645.49,139.44
			z"/>
		<path class="st2" d="M673.97,146.24v19.08c0,1.33,0.32,2.29,0.96,2.88c0.64,0.59,1.72,0.89,3.24,0.89h4.63v8.4h-6.27
			c-8.4,0-12.6-4.08-12.6-12.25v-19.01h-4.7v-8.19h4.7v-9.75h10.04v9.75h8.83v8.19H673.97z"/>
	</g>
</g>
<g>
	<defs>
		<rect id="SVGID_00000142868261346849394960000000696206683628523147_" y="-0.63" width="1572" height="274.27"/>
	</defs>
	<clipPath id="SVGID_00000022529371134204594770000016760592095366508674_">
		<use xlink:href="#SVGID_00000142868261346849394960000000696206683628523147_"  style="overflow:visible;"/>
	</clipPath>
	<g style="opacity:0.1;clip-path:url(#SVGID_00000022529371134204594770000016760592095366508674_);">
		<g>
			<g>
				<polygon class="st4" points="1223.46,207.5 1398.13,271.54 1221.09,290.75 				"/>
				<g class="st5">
					<path d="M1150.25,94.8c-0.06-0.14-0.2-0.24-0.36-0.25c-0.24-0.02-0.45,0.16-0.47,0.4l11.38,97.26
						c-0.02,0.24,0.16,0.45,0.4,0.47c0.24,0.02,0.45-0.16,0.47-0.4l-11.38-97.26C1150.29,94.95,1150.28,94.87,1150.25,94.8z"/>
				</g>
				<g class="st6">
					<path d="M1250.24,31.89c-0.09-0.2-0.32-0.3-0.54-0.23l-122,142.47c-0.23,0.08-0.35,0.33-0.28,0.56
						c0.07,0.23,0.33,0.35,0.56,0.28l122-142.47c0.23-0.08,0.35-0.33,0.28-0.56C1250.25,31.92,1250.25,31.91,1250.24,31.89z"/>
				</g>
				<g class="st7">
					<path d="M1250.24,31.89c-0.08-0.17-0.26-0.27-0.45-0.25l-99.99,62.91c-0.24,0.03-0.41,0.25-0.38,0.49
						c0.03,0.24,0.25,0.41,0.49,0.38l99.99-62.91c0.24-0.03,0.41-0.25,0.38-0.49C1250.27,31.98,1250.26,31.94,1250.24,31.89z"/>
				</g>
				<g class="st8">
					<path d="M1186.09,266.15c-0.08-0.17-0.25-0.27-0.45-0.25c-0.24,0.03-0.42,0.25-0.39,0.49l-18.15,56.38
						c0.03,0.24,0.24,0.42,0.49,0.39c0.24-0.03,0.41-0.24,0.39-0.49l18.15-56.38C1186.12,266.24,1186.11,266.19,1186.09,266.15z"/>
				</g>
				<g class="st9">
					<path d="M1186.09,266.15c-0.1-0.21-0.35-0.31-0.56-0.22c-0.23,0.09-0.33,0.35-0.24,0.57l11.33,96.24
						c0.09,0.23,0.35,0.33,0.57,0.24c0.23-0.09,0.33-0.35,0.24-0.57l-11.33-96.24C1186.1,266.16,1186.09,266.16,1186.09,266.15z"/>
				</g>
				<g class="st10">
					<path d="M1302.41,175.25c-0.04-0.08-0.1-0.15-0.18-0.19L1250.07,31.7c-0.21-0.12-0.48-0.05-0.6,0.16
						c-0.12,0.21-0.05,0.48,0.16,0.6l52.17,143.35c0.21,0.12,0.48,0.05,0.6-0.16C1302.47,175.53,1302.47,175.37,1302.41,175.25z"/>
				</g>
				<g class="st11">
					<path d="M1209.47,165.87c-0.1-0.22-0.36-0.31-0.58-0.21l-47.85,26.2c-0.22,0.1-0.32,0.36-0.22,0.58l0,0
						c0.1,0.22,0.36,0.31,0.58,0.21l47.85-26.2C1209.48,166.35,1209.58,166.09,1209.47,165.87L1209.47,165.87z"/>
				</g>
				<g class="st12">
					<path d="M1186.09,266.15c-0.01-0.01-0.01-0.02-0.02-0.03l-16.16-36.38c-0.12-0.21-0.39-0.28-0.6-0.16
						c-0.21,0.12-0.26,0.4-0.16,0.6l16.16,36.38c0.12,0.21,0.39,0.28,0.6,0.16C1186.11,266.6,1186.19,266.35,1186.09,266.15z"/>
				</g>
				<g class="st13">
					<path d="M1186.09,266.15c-0.03-0.05-0.06-0.1-0.11-0.15l-40.24-34.93c-0.18-0.16-0.46-0.14-0.62,0.04
						c-0.16,0.18-0.14,0.46,0.04,0.62l40.24,34.93c0.18,0.16,0.46,0.14,0.62-0.04C1186.14,266.49,1186.16,266.3,1186.09,266.15z"/>
				</g>
				<g class="st14">
					<path d="M1209.47,165.87c-0.04-0.08-0.1-0.15-0.18-0.2c-0.21-0.12-0.48-0.04-0.6,0.17l-23.38,100.28
						c-0.12,0.21-0.04,0.48,0.17,0.6c0.21,0.12,0.48,0.04,0.6-0.17l23.38-100.28C1209.53,166.14,1209.53,165.99,1209.47,165.87z"/>
				</g>
				<g class="st15">
					<path d="M1197.42,362.39c-0.07-0.16-0.24-0.26-0.42-0.25c-0.24,0.01-0.43,0.22-0.42,0.46l24.41-21.21
						c0.01,0.24,0.22,0.43,0.46,0.42c0.24-0.01,0.43-0.22,0.42-0.46l-24.41,21.21C1197.46,362.5,1197.44,362.44,1197.42,362.39z"/>
				</g>
				<g class="st16">
					<path d="M1302.41,175.25c0-0.01,0-0.01-0.01-0.02c-0.11-0.22-0.38-0.3-0.59-0.19l-132.48,54.53c-0.22,0.11-0.27,0.38-0.19,0.59
						c0.11,0.22,0.38,0.3,0.59,0.19l132.48-54.53C1302.43,175.71,1302.51,175.46,1302.41,175.25z"/>
				</g>
				<g class="st17">
					<path d="M1302.41,175.25c-0.01-0.01-0.01-0.02-0.02-0.04c-0.12-0.21-0.39-0.28-0.6-0.16l-92.94-9.38
						c-0.21,0.12-0.28,0.38-0.16,0.6c0.12,0.21,0.39,0.28,0.6,0.16l92.94,9.38C1302.43,175.7,1302.51,175.45,1302.41,175.25z"/>
				</g>
				<g class="st18">
					<path d="M1299.37,64.28c-0.03-0.06-0.07-0.11-0.13-0.16c-0.19-0.15-0.47-0.12-0.62,0.08l3.04,110.97
						c-0.15,0.19-0.11,0.47,0.08,0.62c0.19,0.15,0.47,0.12,0.62-0.08l-3.04-110.97C1299.42,64.6,1299.44,64.42,1299.37,64.28z"/>
				</g>
				<g class="st19">
					<path d="M1299.37,64.28c-0.02-0.03-0.04-0.07-0.06-0.1c-0.16-0.18-0.44-0.21-0.62-0.05l-89.89,101.59
						c-0.18,0.16-0.2,0.43-0.05,0.62c0.16,0.18,0.44,0.21,0.62,0.05l89.89-101.59C1299.41,64.67,1299.45,64.46,1299.37,64.28z"/>
				</g>
				<g class="st20">
					<path d="M1339.23,159.8c-0.09-0.2-0.33-0.3-0.54-0.23l-129.76,6.07c-0.23,0.08-0.35,0.33-0.27,0.56
						c0.06,0.22,0.33,0.35,0.56,0.27l129.76-6.07c0.23-0.08,0.35-0.33,0.27-0.56C1339.25,159.83,1339.24,159.81,1339.23,159.8z"/>
				</g>
				<g class="st21">
					<path d="M1315.89,430.57c-0.08-0.17-0.27-0.28-0.46-0.25l-94.06-89.4c-0.24,0.04-0.4,0.26-0.37,0.5
						c0.04,0.24,0.26,0.4,0.5,0.37l94.06,89.4c0.24-0.04,0.41-0.26,0.37-0.5C1315.92,430.65,1315.91,430.61,1315.89,430.57z"/>
				</g>
				<g class="st22">
					<path d="M1414.38-19.24c-0.02-0.05-0.05-0.09-0.1-0.13c-0.18-0.17-0.45-0.16-0.62,0.02l-75.14,179.04
						c-0.17,0.18-0.16,0.45,0.02,0.62c0.18,0.17,0.45,0.16,0.62-0.02l75.14-179.04C1414.42-18.88,1414.45-19.08,1414.38-19.24z"/>
				</g>
				<g class="st23">
					<path d="M1339.23,159.8c-0.01-0.02-0.02-0.04-0.03-0.06c-0.14-0.2-0.41-0.25-0.61-0.12l-115.38,47.51
						c-0.2,0.14-0.25,0.41-0.12,0.61c0.14,0.2,0.41,0.25,0.61,0.12l115.38-47.51C1339.26,160.23,1339.32,159.99,1339.23,159.8z"/>
				</g>
				<g class="st24">
					<path d="M1570.13,127.23c-0.08-0.17-0.27-0.28-0.47-0.25L1298.9,64.03c-0.24,0.04-0.4,0.26-0.36,0.5
						c0.04,0.24,0.26,0.4,0.5,0.36l270.76,62.95c0.24-0.04,0.4-0.26,0.36-0.5C1570.16,127.3,1570.14,127.26,1570.13,127.23z"/>
				</g>
				<g class="st25">
					<path d="M1299.37,64.28c-0.07-0.15-0.23-0.26-0.41-0.25c-0.24,0.01-0.43,0.21-0.43,0.45l19.81,129.02
						c0.01,0.24,0.21,0.43,0.45,0.43c0.24-0.01,0.43-0.21,0.43-0.45l-19.81-129.02C1299.41,64.39,1299.39,64.33,1299.37,64.28z"/>
				</g>
				<g class="st26">
					<path d="M1412.78,202.53c-0.02-0.04-0.05-0.08-0.08-0.12L1299.29,64.16c-0.17-0.17-0.45-0.18-0.62-0.01
						c-0.17,0.17-0.18,0.45-0.01,0.62l113.41,138.25c0.17,0.17,0.45,0.18,0.62,0.01C1412.82,202.9,1412.85,202.7,1412.78,202.53z"/>
				</g>
				<g class="st27">
					<path d="M1221.49,290.56c-0.08-0.18-0.28-0.28-0.48-0.25c-0.24,0.05-0.39,0.28-0.35,0.52l94.41,140.02
						c0.05,0.24,0.28,0.39,0.52,0.35c0.24-0.05,0.39-0.28,0.35-0.52l-94.41-140.02C1221.51,290.63,1221.5,290.59,1221.49,290.56z"/>
				</g>
				<g class="st28">
					<path d="M1221.49,290.56c-0.06-0.12-0.16-0.21-0.3-0.24c-0.24-0.05-0.47,0.09-0.52,0.33l1.6,122.5
						c-0.06,0.24,0.09,0.47,0.33,0.53c0.24,0.05,0.47-0.09,0.53-0.33l-1.6-122.5C1221.54,290.74,1221.53,290.64,1221.49,290.56z"/>
				</g>
				<g class="st29">
					<path d="M1262.86,318.75c-0.07-0.15-0.23-0.26-0.4-0.25c-0.24,0-0.44,0.2-0.43,0.45l53.03,111.82c0,0.24,0.2,0.44,0.45,0.43
						c0.24,0,0.44-0.2,0.43-0.45l-53.03-111.82C1262.9,318.87,1262.89,318.81,1262.86,318.75z"/>
				</g>
				<g class="st30">
					<path d="M1262.86,318.75c-0.04-0.08-0.1-0.15-0.19-0.2c-0.21-0.12-0.48-0.04-0.6,0.18l-39.78,94.31
						c-0.11,0.21-0.03,0.48,0.18,0.6c0.21,0.11,0.48,0.04,0.59-0.18l39.78-94.31C1262.92,319.02,1262.92,318.87,1262.86,318.75z"/>
				</g>
				<g class="st31">
					<path d="M1570.13,127.23c-0.1-0.22-0.36-0.31-0.58-0.21l-230.89,32.57c-0.22,0.1-0.32,0.36-0.22,0.58l0,0
						c0.1,0.22,0.36,0.31,0.58,0.21l230.89-32.57C1570.13,127.71,1570.23,127.45,1570.13,127.23L1570.13,127.23z"/>
				</g>
				<g class="st32">
					<path d="M1339.23,159.8c-0.06-0.14-0.19-0.24-0.36-0.25c-0.24-0.02-0.46,0.15-0.48,0.4l-20.05,33.5
						c-0.02,0.24,0.15,0.46,0.39,0.48c0.24,0.02,0.46-0.15,0.48-0.4l20.05-33.5C1339.28,159.95,1339.27,159.87,1339.23,159.8z"/>
				</g>
				<g class="st33">
					<path d="M1339.23,159.8c-0.08-0.17-0.26-0.27-0.45-0.25c-0.24,0.03-0.41,0.25-0.38,0.49l59.29,111.55
						c0.03,0.24,0.25,0.41,0.49,0.38c0.24-0.03,0.41-0.25,0.38-0.49l-59.29-111.55C1339.27,159.88,1339.25,159.84,1339.23,159.8z"/>
				</g>
				<g class="st34">
					<path d="M1221.49,290.56c-0.03-0.06-0.07-0.11-0.12-0.16l-76.78-78.25c-0.19-0.15-0.47-0.12-0.62,0.07
						c-0.15,0.19-0.12,0.47,0.07,0.62l76.78,78.25c0.19,0.15,0.47,0.12,0.62-0.07C1221.54,290.89,1221.55,290.71,1221.49,290.56z"/>
				</g>
				<g class="st35">
					<path d="M1331.87,304.53c-0.06-0.12-0.17-0.22-0.32-0.24c-0.24-0.05-0.47,0.11-0.51,0.35l-15.98,126.05
						c-0.05,0.24,0.11,0.47,0.35,0.51c0.24,0.05,0.47-0.11,0.51-0.35l15.98-126.05C1331.93,304.7,1331.91,304.61,1331.87,304.53z"/>
				</g>
				<g class="st36">
					<path d="M1331.87,304.53c-0.03-0.07-0.08-0.13-0.15-0.18c-0.2-0.14-0.47-0.09-0.61,0.12L1222.32,413
						c-0.14,0.2-0.08,0.47,0.12,0.61c0.2,0.14,0.47,0.09,0.61-0.12l108.79-108.53C1331.93,304.83,1331.94,304.66,1331.87,304.53z"/>
				</g>
				<g class="st37">
					<path d="M1422.95,366.77c-0.06-0.13-0.19-0.23-0.35-0.25l-199.87,46.29c-0.24-0.03-0.46,0.15-0.49,0.39
						c-0.03,0.24,0.14,0.46,0.39,0.49l199.87-46.29c0.24,0.03,0.46-0.15,0.49-0.39C1423,366.92,1422.99,366.84,1422.95,366.77z"/>
				</g>
				<g class="st38">
					<path d="M1319.18,193.3c-0.07-0.15-0.23-0.26-0.4-0.25l-174.48,19c-0.24,0-0.44,0.2-0.43,0.45c0.01,0.24,0.2,0.44,0.45,0.43
						l174.48-19c0.24,0,0.44-0.2,0.43-0.45C1319.22,193.42,1319.21,193.36,1319.18,193.3z"/>
				</g>
				<g class="st39">
					<path d="M1398.52,271.35c-0.07-0.14-0.2-0.24-0.37-0.25l-174.67-64.04c-0.24-0.02-0.45,0.16-0.47,0.41
						c-0.02,0.24,0.16,0.45,0.41,0.47l174.67,64.04c0.24,0.02,0.45-0.16,0.47-0.41C1398.57,271.5,1398.55,271.42,1398.52,271.35z"/>
				</g>
				<g class="st40">
					<path d="M1319.18,193.3c-0.03-0.07-0.09-0.14-0.16-0.18c-0.21-0.13-0.48-0.07-0.61,0.13l-97.7,97.25
						c-0.13,0.21-0.07,0.48,0.13,0.61c0.21,0.13,0.48,0.07,0.61-0.13l97.7-97.25C1319.24,193.6,1319.24,193.44,1319.18,193.3z"/>
				</g>
				<g class="st41">
					<path d="M1331.87,304.53c-0.02-0.04-0.04-0.07-0.07-0.11l-108.02-97.22c-0.16-0.18-0.44-0.2-0.62-0.03
						c-0.18,0.16-0.19,0.44-0.03,0.62l108.02,97.22c0.16,0.18,0.44,0.2,0.62,0.03C1331.92,304.91,1331.95,304.7,1331.87,304.53z"/>
				</g>
				<g class="st42">
					<path d="M1319.18,193.3c-0.05-0.11-0.15-0.2-0.28-0.24c-0.23-0.07-0.48,0.07-0.54,0.3l-56.32,125.45
						c-0.07,0.23,0.07,0.48,0.3,0.55c0.23,0.07,0.48-0.07,0.54-0.3l56.32-125.45C1319.24,193.51,1319.23,193.4,1319.18,193.3z"/>
				</g>
				<g class="st43">
					<path d="M1495.96,150.44c-0.02-0.05-0.06-0.09-0.1-0.13c-0.18-0.17-0.46-0.16-0.62,0.02l-97.44,120.92
						c-0.17,0.18-0.16,0.46,0.02,0.62c0.18,0.17,0.46,0.16,0.62-0.02l97.44-120.92C1496.01,150.79,1496.03,150.6,1495.96,150.44z"/>
				</g>
				<g class="st44">
					<path d="M1570.13,127.23c-0.03-0.06-0.07-0.11-0.12-0.15c-0.19-0.16-0.46-0.13-0.62,0.06l-157.35,75.31
						c-0.16,0.19-0.13,0.47,0.06,0.62c0.19,0.15,0.46,0.13,0.62-0.06l157.35-75.31C1570.18,127.56,1570.2,127.38,1570.13,127.23z"/>
				</g>
				<g class="st45">
					<path d="M1319.18,193.3c-0.06-0.13-0.19-0.23-0.34-0.25c-0.24-0.03-0.46,0.14-0.49,0.38l12.69,111.22
						c-0.03,0.24,0.14,0.46,0.38,0.49c0.24,0.03,0.46-0.14,0.49-0.38l-12.69-111.22C1319.23,193.46,1319.22,193.38,1319.18,193.3z"
						/>
				</g>
				<g class="st46">
					<path d="M1398.52,271.35c-0.05-0.1-0.14-0.19-0.25-0.23c-0.23-0.08-0.48,0.04-0.56,0.27l-66.65,33.17
						c-0.08,0.23,0.04,0.48,0.27,0.56c0.23,0.08,0.48-0.04,0.56-0.27l66.65-33.17C1398.58,271.57,1398.57,271.46,1398.52,271.35z"/>
				</g>
				<g class="st47">
					<path d="M1422.95,366.77c-0.01-0.02-0.03-0.05-0.04-0.07l-91.08-62.24c-0.14-0.2-0.42-0.24-0.61-0.1
						c-0.2,0.14-0.24,0.41-0.1,0.61l91.08,62.24c0.14,0.2,0.42,0.24,0.61,0.1C1422.99,367.19,1423.04,366.96,1422.95,366.77z"/>
				</g>
				<g class="st48">
					<path d="M1150.25,94.8c-0.02-0.04-0.04-0.08-0.08-0.11c-0.17-0.18-0.44-0.19-0.62-0.02l-22.01,79.56
						c-0.18,0.17-0.19,0.45-0.02,0.62c0.17,0.18,0.44,0.19,0.62,0.02l22.01-79.56C1150.29,95.18,1150.33,94.97,1150.25,94.8z"/>
				</g>
				<g class="st48">
					<path d="M1161.63,192.07C1161.63,192.06,1161.63,192.06,1161.63,192.07l-33.39-17.71c-0.11-0.22-0.37-0.31-0.59-0.2
						c-0.22,0.11-0.28,0.38-0.2,0.59l33.38,17.7c0.11,0.22,0.37,0.31,0.59,0.2C1161.64,192.54,1161.73,192.28,1161.63,192.07z"/>
				</g>
				<g class="st48">
					<path d="M1197.42,362.39c-0.06-0.13-0.18-0.22-0.33-0.25l-29.48-39.86c-0.24-0.04-0.46,0.13-0.5,0.37
						c-0.04,0.24,0.13,0.47,0.37,0.5l29.48,39.86c0.24,0.04,0.46-0.13,0.5-0.37C1197.47,362.55,1197.45,362.47,1197.42,362.39z"/>
				</g>
				<g class="st48">
					<path d="M1161.63,192.07c-0.08-0.17-0.26-0.27-0.45-0.25c-0.24,0.03-0.41,0.25-0.38,0.49l24.46,74.08
						c0.03,0.24,0.25,0.41,0.49,0.38c0.24-0.03,0.41-0.25,0.38-0.49l-24.46-74.08C1161.66,192.15,1161.65,192.11,1161.63,192.07z"/>
				</g>
				<g class="st48">
					<path d="M1169.93,229.77c-0.06-0.12-0.17-0.22-0.32-0.25c-0.24-0.04-0.47,0.11-0.52,0.35l-24.08,1.44
						c-0.04,0.24,0.11,0.47,0.35,0.51c0.24,0.04,0.47-0.11,0.52-0.35l24.08-1.44C1169.98,229.95,1169.97,229.85,1169.93,229.77z"/>
				</g>
				<g class="st48">
					<path d="M1209.47,165.87c-0.1-0.22-0.36-0.31-0.58-0.21l-39.54,63.9c-0.22,0.1-0.32,0.36-0.22,0.58l0,0.01
						c0.1,0.22,0.36,0.31,0.58,0.22l39.54-63.9C1209.48,166.36,1209.58,166.1,1209.47,165.87
						C1209.48,165.88,1209.48,165.87,1209.47,165.87z"/>
				</g>
				<g class="st48">
					<path d="M1209.47,165.87c-0.01-0.02-0.02-0.04-0.04-0.06c-0.14-0.2-0.41-0.25-0.61-0.11l-63.62,65.35
						c-0.2,0.14-0.26,0.41-0.11,0.61c0.14,0.2,0.41,0.25,0.61,0.11l63.62-65.35C1209.51,166.29,1209.56,166.06,1209.47,165.87z"/>
				</g>
				<g class="st48">
					<path d="M1299.37,64.28c-0.08-0.17-0.27-0.28-0.47-0.25c-0.24,0.04-0.4,0.27-0.36,0.51l39.87,95.52
						c0.05,0.24,0.27,0.4,0.51,0.36c0.24-0.04,0.4-0.27,0.36-0.51l-39.87-95.52C1299.4,64.35,1299.38,64.32,1299.37,64.28z"/>
				</g>
				<g class="st48">
					<path d="M1414.38-19.24c-0.1-0.21-0.34-0.31-0.56-0.22l-115.01,83.52c-0.23,0.09-0.34,0.34-0.25,0.57
						c0.07,0.22,0.34,0.34,0.57,0.25l115.01-83.52c0.23-0.09,0.34-0.34,0.25-0.57C1414.38-19.22,1414.38-19.23,1414.38-19.24z"/>
				</g>
				<g class="st48">
					<path d="M1315.89,430.57c-0.08-0.16-0.25-0.27-0.44-0.25l-92.81-17.52c-0.24,0.02-0.42,0.24-0.39,0.48
						c0.02,0.24,0.24,0.42,0.48,0.39l92.81,17.52c0.24-0.02,0.42-0.24,0.4-0.48C1315.93,430.67,1315.91,430.62,1315.89,430.57z"/>
				</g>
				<g class="st48">
					<path d="M1223.86,207.31c-0.06-0.12-0.17-0.22-0.31-0.25l-79.15,5c-0.24-0.05-0.47,0.11-0.52,0.35
						c-0.04,0.24,0.11,0.47,0.35,0.52l79.15-5c0.24,0.05,0.47-0.11,0.52-0.35C1223.91,207.49,1223.9,207.39,1223.86,207.31z"/>
				</g>
				<g class="st48">
					<path d="M1412.78,202.53c-0.04-0.09-0.11-0.16-0.2-0.21l-73.54-42.73c-0.22-0.11-0.48-0.02-0.59,0.2
						c-0.11,0.22-0.02,0.48,0.2,0.59l73.54,42.73c0.22,0.11,0.48,0.02,0.59-0.2C1412.83,202.79,1412.83,202.65,1412.78,202.53z"/>
				</g>
				<g class="st48">
					<path d="M1221.49,290.56c-0.01-0.01-0.01-0.03-0.02-0.04l2.37-83.25c-0.12-0.21-0.39-0.28-0.6-0.15
						c-0.21,0.12-0.27,0.41-0.16,0.6l-2.37,83.25c0.12,0.21,0.39,0.28,0.6,0.16C1221.51,291.01,1221.58,290.76,1221.49,290.56z"/>
				</g>
				<g class="st48">
					<path d="M1570.13,127.23c-0.07-0.14-0.21-0.24-0.38-0.25L1414-19.49c-0.24-0.01-0.45,0.17-0.46,0.42
						c-0.01,0.24,0.17,0.45,0.42,0.46l155.75,146.46c0.24,0.01,0.45-0.17,0.46-0.42C1570.17,127.36,1570.16,127.29,1570.13,127.23z"
						/>
				</g>
				<g class="st48">
					<path d="M1422.95,366.77c-0.06-0.12-0.17-0.21-0.3-0.24l-107.06,63.81c-0.24-0.05-0.47,0.1-0.52,0.34
						c-0.05,0.24,0.1,0.47,0.34,0.52l107.06-63.81c0.24,0.05,0.47-0.1,0.52-0.34C1423.01,366.95,1422.99,366.85,1422.95,366.77z"/>
				</g>
				<g class="st48">
					<path d="M1495.96,150.44c-0.01-0.02-0.02-0.04-0.03-0.06L1414.34-19.3c-0.14-0.2-0.41-0.25-0.61-0.12
						c-0.2,0.14-0.25,0.41-0.12,0.61l81.58,169.68c0.14,0.2,0.41,0.25,0.61,0.12C1495.99,150.87,1496.05,150.63,1495.96,150.44z"/>
				</g>
				<g class="st48">
					<path d="M1319.18,193.3c-0.08-0.17-0.27-0.28-0.46-0.25l-95.33,14.01c-0.24,0.03-0.41,0.26-0.37,0.5
						c0.03,0.24,0.26,0.41,0.5,0.37l95.32-14.01c0.24-0.04,0.41-0.26,0.37-0.5C1319.21,193.38,1319.2,193.34,1319.18,193.3z"/>
				</g>
				<g class="st48">
					<path d="M1262.86,318.75c-0.01-0.02-0.02-0.05-0.04-0.07l-41.38-28.19c-0.14-0.2-0.41-0.25-0.61-0.1
						c-0.2,0.14-0.24,0.41-0.1,0.61l41.38,28.19c0.14,0.2,0.41,0.25,0.61,0.11C1262.9,319.17,1262.95,318.94,1262.86,318.75z"/>
				</g>
				<g class="st48">
					<path d="M1398.52,271.35c-0.02-0.04-0.04-0.07-0.07-0.11c-0.16-0.18-0.44-0.2-0.62-0.03l-177.04,19.2
						c-0.18,0.16-0.2,0.44-0.03,0.62c0.16,0.18,0.44,0.2,0.62,0.03l177.04-19.2C1398.57,271.74,1398.6,271.53,1398.52,271.35z"/>
				</g>
				<g class="st48">
					<path d="M1331.87,304.53c-0.04-0.08-0.11-0.16-0.19-0.2l-110.39-13.97c-0.22-0.11-0.48-0.03-0.59,0.19
						c-0.11,0.22-0.03,0.48,0.18,0.59l110.39,13.97c0.22,0.11,0.48,0.03,0.59-0.18C1331.93,304.79,1331.93,304.65,1331.87,304.53z"
						/>
				</g>
				<g class="st48">
					<path d="M1398.52,271.36c-0.01-0.02-0.02-0.04-0.04-0.06l-79.34-78.05c-0.14-0.2-0.41-0.25-0.61-0.11
						c-0.2,0.14-0.25,0.42-0.11,0.61l79.34,78.05c0.14,0.2,0.41,0.25,0.61,0.11C1398.55,271.78,1398.61,271.55,1398.52,271.36z"/>
				</g>
				<g class="st48">
					<path d="M1570.13,127.23c-0.02-0.03-0.04-0.07-0.06-0.09c-0.16-0.19-0.43-0.21-0.62-0.06l-74.17,23.21
						c-0.19,0.15-0.21,0.44-0.06,0.62c0.16,0.19,0.43,0.21,0.62,0.06l74.17-23.21C1570.17,127.62,1570.21,127.4,1570.13,127.23z"/>
				</g>
				<g class="st48">
					<path d="M1331.87,304.53c-0.1-0.22-0.36-0.31-0.58-0.21l-69.01,14.22c-0.22,0.1-0.32,0.36-0.21,0.58l0,0
						c0.1,0.22,0.36,0.31,0.58,0.21l69.01-14.22C1331.88,305.01,1331.99,304.74,1331.87,304.53z"/>
				</g>
				<g class="st48">
					<path d="M1412.78,202.53c-0.09-0.18-0.29-0.29-0.5-0.24l-93.59-9.23c-0.24,0.06-0.38,0.3-0.32,0.53
						c0.06,0.24,0.3,0.38,0.53,0.32l93.59,9.23c0.24-0.06,0.38-0.3,0.32-0.53C1412.8,202.59,1412.79,202.56,1412.78,202.53z"/>
				</g>
				<g class="st48">
					<path d="M1412.78,202.53c-0.01-0.02-0.02-0.04-0.03-0.06c-0.13-0.2-0.41-0.26-0.61-0.12l-14.25,68.82
						c-0.2,0.14-0.25,0.41-0.12,0.61c0.13,0.2,0.41,0.26,0.61,0.12l14.25-68.82C1412.8,202.96,1412.87,202.73,1412.78,202.53z"/>
				</g>
				<g class="st48">
					<path d="M1495.96,150.44c-0.04-0.08-0.1-0.15-0.18-0.19c-0.21-0.12-0.48-0.05-0.6,0.16L1412,202.5
						c-0.12,0.21-0.05,0.48,0.16,0.6c0.21,0.12,0.48,0.05,0.6-0.16l83.18-52.1C1496.02,150.72,1496.02,150.56,1495.96,150.44z"/>
				</g>
				<path d="M1129.08,173.41c-0.63-0.68-1.69-0.73-2.37-0.1c-0.68,0.63-0.73,1.69-0.1,2.37c0.63,0.68,1.69,0.73,2.37,0.1
					C1129.67,175.16,1129.71,174.1,1129.08,173.41z"/>
				<path d="M1151.09,93.86c-0.63-0.68-1.69-0.73-2.37-0.1c-0.68,0.63-0.73,1.69-0.1,2.37c0.63,0.68,1.69,0.73,2.37,0.1
					C1151.67,95.6,1151.72,94.54,1151.09,93.86z"/>
				<path d="M1168.78,321.58c-0.63-0.68-1.69-0.73-2.37-0.1c-0.68,0.63-0.73,1.69-0.1,2.37c0.63,0.68,1.69,0.73,2.37,0.1
					C1169.36,323.32,1169.41,322.26,1168.78,321.58z"/>
				<path d="M1162.47,191.12c-0.63-0.68-1.69-0.73-2.37-0.1c-0.68,0.63-0.73,1.69-0.1,2.37c0.63,0.68,1.69,0.73,2.37,0.1
					S1163.1,191.8,1162.47,191.12z"/>
				<path d="M1251.08,30.95c-0.63-0.68-1.69-0.73-2.37-0.1c-0.68,0.63-0.73,1.69-0.1,2.37c0.63,0.68,1.69,0.73,2.37,0.1
					C1251.66,32.69,1251.71,31.63,1251.08,30.95z"/>
				<path d="M1186.93,265.2c-0.63-0.68-1.69-0.73-2.37-0.1c-0.68,0.63-0.73,1.69-0.1,2.37c0.63,0.68,1.69,0.73,2.37,0.1
					C1187.51,266.95,1187.56,265.88,1186.93,265.2z"/>
				<path d="M1198.26,361.44c-0.63-0.68-1.69-0.73-2.37-0.1c-0.68,0.63-0.73,1.69-0.1,2.37c0.63,0.68,1.69,0.73,2.37,0.1
					C1198.84,363.19,1198.89,362.12,1198.26,361.44z"/>
				<path d="M1303.25,174.3c-0.63-0.68-1.69-0.73-2.37-0.1c-0.68,0.63-0.73,1.69-0.1,2.37c0.63,0.68,1.69,0.73,2.37,0.1
					C1303.83,176.04,1303.88,174.98,1303.25,174.3z"/>
				<path d="M1170.77,228.82c-0.63-0.68-1.69-0.73-2.37-0.1c-0.68,0.63-0.73,1.69-0.1,2.37c0.63,0.68,1.69,0.73,2.37,0.1
					C1171.35,230.57,1171.4,229.51,1170.77,228.82z"/>
				<path d="M1146.69,230.27c-0.63-0.68-1.69-0.73-2.37-0.1s-0.73,1.69-0.1,2.37c0.63,0.68,1.69,0.73,2.37,0.1
					C1147.27,232.01,1147.32,230.95,1146.69,230.27z"/>
				<path d="M1210.31,164.92c-0.63-0.68-1.69-0.73-2.37-0.1s-0.73,1.69-0.1,2.37c0.63,0.68,1.69,0.73,2.37,0.1
					C1210.9,166.67,1210.94,165.61,1210.31,164.92z"/>
				<path d="M1222.67,340.23c-0.63-0.68-1.69-0.73-2.37-0.1c-0.68,0.63-0.73,1.69-0.1,2.37c0.63,0.68,1.69,0.73,2.37,0.1
					C1223.25,341.98,1223.3,340.91,1222.67,340.23z"/>
				<path d="M1300.21,63.33c-0.63-0.68-1.69-0.73-2.37-0.1c-0.68,0.63-0.73,1.69-0.1,2.37c0.63,0.68,1.69,0.73,2.37,0.1
					C1300.79,65.08,1300.84,64.02,1300.21,63.33z"/>
				<path d="M1340.08,158.85c-0.63-0.68-1.69-0.73-2.37-0.1c-0.68,0.63-0.73,1.69-0.1,2.37c0.63,0.68,1.69,0.73,2.37,0.1
					C1340.66,160.6,1340.7,159.54,1340.08,158.85z"/>
				<path d="M1316.73,429.63c-0.63-0.68-1.69-0.73-2.37-0.1c-0.68,0.63-0.73,1.69-0.1,2.37c0.63,0.68,1.69,0.73,2.37,0.1
					C1317.31,431.37,1317.36,430.31,1316.73,429.63z"/>
				<path d="M1223.92,412.11c-0.63-0.68-1.69-0.73-2.37-0.1c-0.68,0.63-0.73,1.69-0.1,2.37c0.63,0.68,1.69,0.73,2.37,0.1
					C1224.5,413.86,1224.55,412.79,1223.92,412.11z"/>
				<path d="M1415.22-20.19c-0.63-0.68-1.69-0.73-2.37-0.1c-0.68,0.63-0.73,1.69-0.1,2.37c0.63,0.68,1.69,0.73,2.37,0.1
					C1415.8-18.44,1415.84-19.5,1415.22-20.19z"/>
				<path d="M1224.7,206.36c-0.63-0.68-1.69-0.73-2.37-0.1c-0.68,0.63-0.73,1.69-0.1,2.37c0.63,0.68,1.69,0.73,2.37,0.1
					C1225.28,208.11,1225.32,207.05,1224.7,206.36z"/>
				<path d="M1145.54,211.36c-0.63-0.68-1.69-0.73-2.37-0.1c-0.68,0.63-0.73,1.69-0.1,2.37c0.63,0.68,1.69,0.73,2.37,0.1
					C1146.12,213.11,1146.17,212.04,1145.54,211.36z"/>
				<path d="M1222.33,289.61c-0.63-0.68-1.69-0.73-2.37-0.1c-0.68,0.63-0.73,1.69-0.1,2.37c0.63,0.68,1.69,0.73,2.37,0.1
					C1222.91,291.36,1222.95,290.29,1222.33,289.61z"/>
				<path d="M1263.7,317.8c-0.63-0.68-1.69-0.73-2.37-0.1c-0.68,0.63-0.73,1.69-0.1,2.37c0.63,0.68,1.69,0.73,2.37,0.1
					C1264.29,319.55,1264.33,318.49,1263.7,317.8z"/>
				<path d="M1570.97,126.28c-0.63-0.68-1.69-0.73-2.37-0.1c-0.68,0.63-0.73,1.69-0.1,2.37c0.63,0.68,1.69,0.73,2.37,0.1
					S1571.59,126.96,1570.97,126.28z"/>
				<path d="M1320.02,192.36c-0.63-0.68-1.69-0.73-2.37-0.1c-0.68,0.63-0.73,1.69-0.1,2.37c0.63,0.68,1.69,0.73,2.37,0.1
					C1320.6,194.1,1320.65,193.04,1320.02,192.36z"/>
				<path d="M1399.36,270.41c-0.63-0.68-1.69-0.73-2.37-0.1c-0.68,0.63-0.73,1.69-0.1,2.37c0.63,0.68,1.69,0.73,2.37,0.1
					C1399.94,272.15,1399.99,271.09,1399.36,270.41z"/>
				<path d="M1496.8,149.49c-0.63-0.68-1.69-0.73-2.37-0.1c-0.68,0.63-0.73,1.69-0.1,2.37c0.63,0.68,1.69,0.73,2.37,0.1
					C1497.38,151.24,1497.43,150.17,1496.8,149.49z"/>
				<path d="M1413.62,201.58c-0.63-0.68-1.69-0.73-2.37-0.1c-0.68,0.63-0.73,1.69-0.1,2.37c0.63,0.68,1.69,0.73,2.37,0.1
					C1414.2,203.33,1414.24,202.27,1413.62,201.58z"/>
				<path d="M1332.71,303.58c-0.63-0.68-1.69-0.73-2.37-0.1c-0.68,0.63-0.73,1.69-0.1,2.37c0.63,0.68,1.69,0.73,2.37,0.1
					C1333.29,305.33,1333.34,304.26,1332.71,303.58z"/>
				<path d="M1423.79,365.82c-0.63-0.68-1.69-0.73-2.37-0.1c-0.68,0.63-0.73,1.69-0.1,2.37c0.63,0.68,1.69,0.73,2.37,0.1
					C1424.37,367.57,1424.42,366.5,1423.79,365.82z"/>
			</g>
			<g class="st48">
				<polygon points="1414.78,-20.04 1414.13,-19.84 1249.73,31.61 1249.68,31.91 1222.53,207.39 1223.51,207.55 1250.61,32.37 
					1413.78,-18.69 1412.2,202.41 1413.19,202.42 				"/>
			</g>
			<g class="st49">
				<polygon points="1221.71,291.41 1221.21,290.56 1167.73,322.24 1168.23,323.09 				"/>
			</g>
			<g class="st49">
				
					<rect x="1218.83" y="322.32" transform="matrix(0.9474 -0.3201 0.3201 0.9474 -36.1558 425.678)" width="115.78" height="0.99"/>
			</g>
			<g class="st50">
				<path d="M1398.26,271.62l-212.96-5.01l-0.32-0.01l-16.18-37.74l229.56,41.77L1398.26,271.62z M1185.64,265.63l206.33,4.85
					l-221.52-40.3L1185.64,265.63z"/>
			</g>
			<g class="st51">
				<polygon points="1414.57,-18.97 1413.99,-19.77 1298.65,63.55 1250.44,31.57 1249.9,32.4 1298.68,64.75 1298.95,64.55 				"/>
			</g>
			<polygon class="st52" points="1414.38,-19.24 1298.53,64.48 1249.46,31.86 			"/>
			<polygon class="st53" points="1197.43,362.41 1185.64,265.63 1167.59,323.15 			"/>
			<polygon class="st48" points="1315.59,430.33 1331.22,304.36 1422.99,367.01 			"/>
			<polygon class="st48" points="1412.78,202.53 1318.35,193.45 1339.23,159.8 			"/>
			<polygon class="st52" points="1127.45,174.75 1161.23,192.25 1149.41,94.96 			"/>
			<polyline class="st52" points="1149.41,94.96 1127.45,174.75 1161.23,192.25 			"/>
			<polyline class="st52" points="1149.41,94.96 1127.45,174.75 1161.23,192.25 			"/>
		</g>
		<path class="st54" d="M1316.63,432c0.51-0.47,0.67-1.19,0.45-1.81l104.23-62.12c0.01,0.01,0.01,0.01,0.01,0.02
			c0.63,0.68,1.69,0.73,2.37,0.1c0.68-0.63,0.73-1.69,0.1-2.37c-0.62-0.68-1.66-0.72-2.34-0.12l-88.41-60.42
			c0.12-0.33,0.13-0.68,0.04-1.01l63.73-31.72c0.03,0.04,0.04,0.09,0.08,0.13c0.63,0.68,1.69,0.73,2.37,0.1
			c0.63-0.58,0.69-1.52,0.21-2.2l80.31-99.67l88.66-42.43c0.02,0.02,0.03,0.05,0.05,0.08c0.63,0.68,1.69,0.73,2.37,0.1
			c0.68-0.63,0.73-1.69,0.1-2.37c-0.58-0.63-1.51-0.69-2.19-0.22L1415.39-18.19c0.38-0.62,0.35-1.43-0.17-2
			c-0.63-0.68-1.69-0.73-2.37-0.1c-0.3,0.27-0.45,0.64-0.51,1.01L1251.2,31.14c-0.04-0.06-0.07-0.14-0.12-0.2
			c-0.63-0.68-1.69-0.73-2.37-0.1c-0.5,0.46-0.65,1.16-0.45,1.77L1151,93.79c-0.63-0.61-1.63-0.64-2.29-0.04
			c-0.68,0.63-0.73,1.69-0.1,2.37c0.12,0.13,0.26,0.21,0.4,0.29l-11.51,41.82l-9.58,34.63c-0.43-0.02-0.87,0.13-1.21,0.44
			c-0.68,0.63-0.73,1.69-0.1,2.37c0.63,0.68,1.69,0.73,2.37,0.1c0.05-0.05,0.08-0.11,0.12-0.17l30.54,16.19
			c-0.15,0.54-0.05,1.13,0.35,1.57c0.35,0.39,0.84,0.55,1.33,0.52l5.07,15.37l-0.41,0.42l-20.13,2.19
			c-0.07-0.19-0.17-0.37-0.32-0.53c-0.63-0.68-1.69-0.73-2.37-0.1c-0.68,0.63-0.73,1.69-0.1,2.37c0.54,0.58,1.38,0.67,2.04,0.31
			l8.41,8.57l-7.25,7.45c-0.61-0.34-1.4-0.29-1.94,0.21c-0.68,0.63-0.73,1.69-0.1,2.37c0.57,0.62,1.47,0.69,2.15,0.24l37.82,32.83
			c-0.29,0.6-0.21,1.34,0.27,1.86c0.11,0.12,0.24,0.19,0.37,0.27l-17.16,53.31c-0.44-0.03-0.9,0.11-1.25,0.43
			c-0.68,0.63-0.73,1.69-0.1,2.37c0.51,0.56,1.3,0.67,1.95,0.36l27.54,37.25c-0.58,0.64-0.61,1.61-0.02,2.26
			c0.63,0.68,1.69,0.73,2.37,0.1c0.6-0.55,0.68-1.43,0.27-2.1l21.96-19.08c0.28,0.23,0.61,0.38,0.96,0.4l0.89,68.61
			c-0.25,0.07-0.49,0.18-0.69,0.36c-0.68,0.63-0.73,1.69-0.1,2.37c0.63,0.68,1.69,0.73,2.37,0.1c0.17-0.15,0.29-0.33,0.38-0.52
			l89.64,16.92c0.03,0.36,0.15,0.73,0.41,1.02C1314.88,432.58,1315.95,432.63,1316.63,432z M1147.12,231.41l14.29-0.86l14.4,14.67
			l8.16,19.03l-37.01-32.13C1147.07,231.9,1147.12,231.66,1147.12,231.41z M1330.87,303.16c-0.1,0.04-0.19,0.11-0.28,0.17
			l-23.9-21.51l21.48-2.33L1330.87,303.16z M1413.54,201.53c-0.11-0.1-0.22-0.18-0.35-0.25l0.37-51.41l76-10.72l4.91,10.21
			c-0.01,0.01-0.03,0.01-0.04,0.03c-0.51,0.46-0.66,1.16-0.45,1.77L1413.54,201.53z M1567.47,127.31l-77.39,10.92l-15.65-32.55
			L1567.47,127.31z M1489.18,138.35l-75.61,10.67l0.41-57.4l59.36,13.8L1489.18,138.35z M1222.8,342.29
			c0.17-0.26,0.3-0.54,0.31-0.84l25.8-8.72l4.47,6.63l-9.63,22.84L1222.8,342.29z M1329.99,303.96c-0.02,0.05-0.04,0.09-0.06,0.14
			l-57.08-7.22l5.38-11.97l27.3-2.96L1329.99,303.96z M1251.08,33.18l46.33,30.73c-0.17,0.48-0.11,1.01,0.18,1.46l-24.99,28.24
			l-21.88-60.13c0.09-0.05,0.19-0.09,0.27-0.16C1251.02,33.28,1251.04,33.23,1251.08,33.18z M1292.92,396.55l-21.27-31.55l8.3-8.28
			l18.3,38.59L1292.92,396.55z M1298.61,396.09l14.24,30.02l-19.43-28.82L1298.61,396.09z M1324.11,243.95l-23.62-8.66l18.03-40.17
			c0,0,0.01,0,0.01,0L1324.11,243.95z M1224.02,204.25l8.42-0.92l-7.66,3.16c-0.03-0.04-0.04-0.09-0.08-0.13
			c-0.26-0.28-0.59-0.42-0.93-0.49L1224.02,204.25z M1337.82,158.68c-0.04,0.03-0.09,0.04-0.12,0.07c-0.27,0.25-0.41,0.56-0.48,0.89
			l-23.03,1.08l-14.25-92.82L1337.82,158.68z M1236.42,202.9l59.09-6.44l-67.58,9.93L1236.42,202.9z M1282.73,228.78l-57.53-21.09
			l92.06-13.53c0.02,0.05,0.06,0.1,0.09,0.15L1282.73,228.78z M1314.79,170.36l3.32,21.62c-0.16,0.07-0.32,0.15-0.46,0.28
			c-0.29,0.27-0.44,0.62-0.5,0.98l-77.82,8.48l61.37-25.26c0.03,0.04,0.04,0.09,0.07,0.12c0.63,0.68,1.69,0.73,2.37,0.1
			c0.49-0.45,0.64-1.12,0.46-1.71L1314.79,170.36z M1315.62,170.01l21.9-9.02c0.03,0.04,0.04,0.09,0.08,0.13
			c0.02,0.02,0.05,0.03,0.07,0.05l-18.4,30.74c-0.1-0.03-0.19-0.06-0.3-0.07L1315.62,170.01z M1315.49,169.14l-1.16-7.58l22.09-1.03
			L1315.49,169.14z M1317.43,195.45l-17.75,39.55l-16.06-5.89L1317.43,195.45z M1224.16,203.36l5.4-34.88l70.31,7.09l-64.51,26.57
			L1224.16,203.36z M1302.31,173.81l-0.32-11.68l11.46-0.54l1.21,7.88l-11.51,4.74C1302.9,174,1302.61,173.86,1302.31,173.81z
			 M1301.96,161.29l-2.49-90.64l13.84,90.11L1301.96,161.29z M1371.57,80.93l-70.94-16.49c0-0.2-0.03-0.39-0.1-0.57l112.41-81.63
			c0.01,0.01,0.03,0.02,0.04,0.03L1371.57,80.93z M1371.25,81.69l-19.49,46.44l-51.44-62.71c0.04-0.06,0.1-0.12,0.14-0.19
			L1371.25,81.69z M1351.38,129.05l-12.3,29.3c-0.15-0.02-0.3-0.02-0.46,0l-38.12-91.33L1351.38,129.05z M1351.97,129.77
			l20.54,25.04l-32.14,4.53c-0.07-0.17-0.16-0.35-0.3-0.49c-0.07-0.08-0.16-0.12-0.24-0.18L1351.97,129.77z M1373.14,155.57
			l37.36,45.55l-70.07-40.72c0.02-0.08,0.05-0.15,0.05-0.23L1373.14,155.57z M1277.22,285.02l-5.28,11.75l-47.56-6.02
			L1277.22,285.02z M1271.59,297.55l-8.87,19.75c-0.48-0.07-0.98,0.04-1.37,0.38l-38.62-26.32L1271.59,297.55z M1280.15,355.3
			l-13.54-28.55l62.44-21.1l0.95-0.2c0.01,0.03,0.03,0.05,0.05,0.08L1280.15,355.3z M1266.19,325.85l-2.67-5.62
			c0.03-0.02,0.06-0.03,0.08-0.05c0.34-0.31,0.52-0.72,0.54-1.15l56.99-11.75L1266.19,325.85z M1265.42,326.11l-6.42,2.17l3.25-7.69
			c0.18,0.02,0.36,0.01,0.54-0.02L1265.42,326.11z M1272.49,297.67l56.09,7.1l-0.83,0.28l-63.81,13.15
			c-0.07-0.14-0.13-0.28-0.24-0.39c-0.05-0.06-0.13-0.09-0.19-0.14L1272.49,297.67z M1330.84,306.26l-10.65,83.98l-21.15,4.9
			l-18.5-39l50.1-49.98C1330.71,306.19,1330.77,306.23,1330.84,306.26z M1271.16,364.28l-16.82-24.95l4.15-9.84l7.36-2.49l13.7,28.9
			L1271.16,364.28z M1253.75,338.47l-4.05-6l7.68-2.59L1253.75,338.47z M1249.13,331.61l-26.52-39.33l38.29,26.09
			c-0.2,0.57-0.11,1.22,0.32,1.7c0.06,0.07,0.15,0.1,0.22,0.16l-3.55,8.42L1249.13,331.61z M1220.29,289.31l-21.96-22.38l23.05,0.54
			l-0.62,21.66C1220.59,289.16,1220.44,289.22,1220.29,289.31z M1197.33,265.91l-8.97-9.14l5.22-22.38l28.6,5.2l-0.77,26.88
			L1197.33,265.91z M1171.14,230.31l2.34,0.43l5.41,16.39l-2.12-2.16l-5.98-13.94C1170.97,230.81,1171.09,230.57,1171.14,230.31z
			 M1174.45,230.91l18.29,3.33l-5.09,21.81l-7.39-7.53L1174.45,230.91z M1185.6,264.68l-4.72-14.28l6.54,6.66l-1.78,7.62
			C1185.63,264.68,1185.62,264.68,1185.6,264.68z M1196.08,265.88l-8.86-0.21c-0.07-0.17-0.15-0.33-0.28-0.47
			c-0.13-0.15-0.3-0.25-0.46-0.34l1.65-7.09L1196.08,265.88z M1179.47,251.24l-1.74-4.07l1.79,1.83l3.02,9.15L1179.47,251.24z
			 M1171.93,229.44l0.99-0.41l0.21,0.62L1171.93,229.44z M1173.72,228.71l22.47-9.25l-3.22,13.81l-18.87-3.43L1173.72,228.71z
			 M1197.15,219.07l25.17-10.36c0.21,0.2,0.46,0.32,0.72,0.39l-0.84,29.5l-28.4-5.17L1197.15,219.07z M1197.39,218.02l2-8.57
			l22.24-1.4L1197.39,218.02z M1199.59,208.58l0.4-1.71l23-2.51l-0.25,1.64c-0.15,0.07-0.29,0.14-0.42,0.25
			c-0.27,0.25-0.42,0.58-0.48,0.91L1199.59,208.58z M1200.2,205.97l8.92-38.25c0.39-0.01,0.78-0.14,1.09-0.42
			c0.22-0.2,0.35-0.46,0.44-0.72l17.92,1.81l-5.43,35.09L1200.2,205.97z M1214.34,166.23l14.67-0.69l-0.33,2.13L1214.34,166.23z
			 M1230.01,165.5l66.88-3.13l4.25,11.66c-0.09,0.05-0.19,0.09-0.27,0.16c-0.22,0.2-0.35,0.46-0.44,0.72l-70.78-7.14L1230.01,165.5z
			 M1297.61,162.34l3.7-0.17l0.31,11.19L1297.61,162.34z M1297.31,161.51l-24.37-66.96l25.29-28.58c0.14,0.07,0.29,0.1,0.45,0.13
			l2.61,95.23L1297.31,161.51z M1413.77-17.4L1413,90.56l-40.62-9.44l41.35-98.53C1413.75-17.41,1413.76-17.41,1413.77-17.4z
			 M1412.99,91.39l-0.41,57.77l-39.05,5.51l-21.18-25.82l19.71-46.97L1412.99,91.39z M1412.57,150.01l-0.37,51.07
			c-0.18,0.02-0.34,0.05-0.51,0.13l-37.55-45.77L1412.57,150.01z M1319.61,194.91l76.58,75.33l-0.73-0.13l-70.45-25.83l-5.62-49.23
			C1319.47,195.02,1319.54,194.96,1319.61,194.91z M1320.08,391.11l-4.82,38.01c-0.03,0-0.06,0.01-0.09,0.01l-15.76-33.24
			L1320.08,391.11z M1313.43,428.43l-30.27-28.77l9.4-2.18L1313.43,428.43z M1282.45,398.98l-22.97-21.83l11.59-11.56l21.01,31.16
			L1282.45,398.98z M1281.82,399.13l-57.67,13.36c-0.01-0.02-0.02-0.04-0.03-0.05l34.98-34.9L1281.82,399.13z M1223.95,411.37
			l20.25-48l14.27,13.56L1223.95,411.37z M1244.42,362.84l9.54-22.62l16.61,24.64l-11.72,11.69L1244.42,362.84z M1221.54,292.35
			c0.04-0.01,0.08-0.01,0.13-0.02l26.67,39.56l-25.5,8.62c-0.06-0.09-0.09-0.19-0.16-0.27c-0.15-0.16-0.33-0.29-0.52-0.38
			L1221.54,292.35z M1191.07,308.41l-4.77-40.52c0.19-0.07,0.37-0.17,0.53-0.32c0.27-0.25,0.41-0.57,0.48-0.91l9.76,0.23
			l22.58,23.02c-0.29,0.49-0.3,1.08-0.04,1.59L1191.07,308.41z M1172.09,226.52l0.56,1.69l-1.8,0.74c-0.03-0.04-0.04-0.09-0.07-0.12
			c-0.02-0.02-0.05-0.03-0.07-0.05L1172.09,226.52z M1172.68,225.56l9.29-15.02l16.54-1.04l-2.08,8.91l-22.99,9.46L1172.68,225.56z
			 M1172.39,224.66l-4.37-13.23l13.07-0.82L1172.39,224.66z M1167.74,210.59l-0.07-0.2l14.52-1.58l-0.56,0.9L1167.74,210.59z
			 M1183.11,208.71l15.99-1.74l-0.39,1.67l-16.19,1.02L1183.11,208.71z M1183.69,207.76l24.43-39.47l-8.81,37.77L1183.69,207.76z
			 M1233.01,139.67l-3.87,25.03l-18.46,0.86c-0.05-0.15-0.13-0.27-0.21-0.41L1233.01,139.67z M1234.22,138.3l38.2-43.17l24.17,66.42
			l-66.45,3.11L1234.22,138.3z M1234.47,136.7l15.84-102.36l21.78,59.85L1234.47,136.7z M1414.75-16.43l58.14,120.92l-58.91-13.69
			L1414.75-16.43z M1358.48,197.82l37.99,71.49l-76.25-75.01c0.05-0.08,0.08-0.16,0.11-0.24L1358.48,197.82z M1313.98,430.05
			l-89.26-16.85l57.82-13.39l31.59,30.03C1314.08,429.91,1314.01,429.97,1313.98,430.05z M1223.09,411.17l-0.89-68.34
			c0.08-0.04,0.16-0.09,0.24-0.14l21.09,20.04L1223.09,411.17z M1220.03,342.22l-21.96,19.08c-0.24-0.2-0.52-0.32-0.82-0.37
			l-6.06-51.45l29.13-17.26c0.11,0.06,0.23,0.08,0.35,0.12l0.62,47.37c-0.36,0.03-0.72,0.15-1,0.41
			C1219.69,340.68,1219.62,341.55,1220.03,342.22z M1196.31,361.08l-4.05-5.48l4.13,5.43
			C1196.36,361.05,1196.33,361.07,1196.31,361.08z M1162.57,230.48l5.33-0.32c0.04,0.33,0.15,0.66,0.4,0.93
			c0.39,0.43,0.95,0.58,1.48,0.5l5.07,11.41L1162.57,230.48z M1162.37,230.28l-7.64-7.78l10.61-10.9l1.79-0.11l4.67,14.13
			l-1.72,2.78c-0.56-0.19-1.21-0.1-1.68,0.33c-0.36,0.33-0.53,0.78-0.53,1.23L1162.37,230.28z M1166.23,210.69l0.15-0.15l0.42-0.05
			l0.05,0.16L1166.23,210.69z M1167.38,209.5l39.47-40.54l-24.08,38.91l-15.38,1.68L1167.38,209.5z M1162.44,191.09
			c-0.27-0.28-0.61-0.43-0.96-0.48l-5.64-48.17l93.24-108.88c0.11,0.06,0.22,0.08,0.33,0.11l-16.15,104.4l-23.43,26.48
			c-0.6-0.3-1.35-0.22-1.88,0.26c-0.46,0.43-0.61,1.05-0.48,1.62L1162.44,191.09z M1247.89,33.78l-92.17,107.64l-5.25-44.88
			c0.19-0.07,0.36-0.17,0.52-0.31c0.5-0.46,0.65-1.16,0.45-1.77L1247.89,33.78z M1415.26-17.38l153.06,143.93
			c-0.02,0.04-0.05,0.06-0.07,0.1l-94.27-21.92L1415.26-17.38z M1564.78,128.54l-67.81,21.22c-0.06-0.09-0.09-0.19-0.16-0.27
			c-0.4-0.44-0.99-0.59-1.54-0.49l-4.8-9.98L1564.78,128.54z M1479.11,170.34l-60.63,29.02l75.2-47.09L1479.11,170.34z
			 M1411.74,204.26l-13.59,65.61c-0.14,0-0.28,0.03-0.42,0.06l-38.27-72.01l51.29,5.06c0.05,0.32,0.16,0.62,0.39,0.88
			C1411.31,204.04,1411.52,204.17,1411.74,204.26z M1396.3,272.1l-63.51,31.61c-0.03-0.04-0.04-0.09-0.08-0.13
			c-0.27-0.3-0.63-0.45-1-0.5l-2.7-23.68L1396.3,272.1z M1154.12,223.12l7.09,7.23l-14.12,0.85c-0.03-0.22-0.1-0.43-0.22-0.63
			L1154.12,223.12z M1154.12,221.88l-8.39-8.55c0.09-0.16,0.15-0.33,0.19-0.51l18.13-1.15L1154.12,221.88z M1165.03,210.68
			l-0.08,0.09l-1.7,0.11L1165.03,210.68z M1167.07,208.58l-4.94-14.95c0.07-0.05,0.16-0.07,0.23-0.14c0.46-0.43,0.61-1.05,0.47-1.62
			l43.9-24.04L1167.07,208.58z M1480.94,169.46l13.94-17.3c0.59,0.26,1.3,0.17,1.81-0.3c0.39-0.35,0.55-0.85,0.52-1.33l67.27-21.05
			L1480.94,169.46z M1477.95,171.78l-79.15,98.22c-0.01-0.01-0.02,0-0.04-0.01l13.59-65.61c0.41,0.01,0.83-0.13,1.16-0.43
			c0.45-0.41,0.6-1.01,0.48-1.57L1477.95,171.78z"/>
	</g>
</g>
</svg>
